<svg id="my-svg" width="100%" xmlns="http://www.w3.org/2000/svg" xmlns:xlink="http://www.w3.org/1999/xlink" class="flowchart" style="max-width: 5288.97px; background-color: white;" viewBox="0 0 5288.97265625 1281" role="graphics-document document" aria-roledescription="flowchart-v2"><style>#my-svg{font-family:"trebuchet ms",verdana,arial,sans-serif;font-size:16px;fill:#333;}@keyframes edge-animation-frame{from{stroke-dashoffset:0;}}@keyframes dash{to{stroke-dashoffset:0;}}#my-svg .edge-animation-slow{stroke-dasharray:9,5!important;stroke-dashoffset:900;animation:dash 50s linear infinite;stroke-linecap:round;}#my-svg .edge-animation-fast{stroke-dasharray:9,5!important;stroke-dashoffset:900;animation:dash 20s linear infinite;stroke-linecap:round;}#my-svg .error-icon{fill:#552222;}#my-svg .error-text{fill:#552222;stroke:#552222;}#my-svg .edge-thickness-normal{stroke-width:1px;}#my-svg .edge-thickness-thick{stroke-width:3.5px;}#my-svg .edge-pattern-solid{stroke-dasharray:0;}#my-svg .edge-thickness-invisible{stroke-width:0;fill:none;}#my-svg .edge-pattern-dashed{stroke-dasharray:3;}#my-svg .edge-pattern-dotted{stroke-dasharray:2;}#my-svg .marker{fill:#333333;stroke:#333333;}#my-svg .marker.cross{stroke:#333333;}#my-svg svg{font-family:"trebuchet ms",verdana,arial,sans-serif;font-size:16px;}#my-svg p{margin:0;}#my-svg .label{font-family:"trebuchet ms",verdana,arial,sans-serif;color:#333;}#my-svg .cluster-label text{fill:#333;}#my-svg .cluster-label span{color:#333;}#my-svg .cluster-label span p{background-color:transparent;}#my-svg .label text,#my-svg span{fill:#333;color:#333;}#my-svg .node rect,#my-svg .node circle,#my-svg .node ellipse,#my-svg .node polygon,#my-svg .node path{fill:#ECECFF;stroke:#9370DB;stroke-width:1px;}#my-svg .rough-node .label text,#my-svg .node .label text,#my-svg .image-shape .label,#my-svg .icon-shape .label{text-anchor:middle;}#my-svg .node .katex path{fill:#000;stroke:#000;stroke-width:1px;}#my-svg .rough-node .label,#my-svg .node .label,#my-svg .image-shape .label,#my-svg .icon-shape .label{text-align:center;}#my-svg .node.clickable{cursor:pointer;}#my-svg .root .anchor path{fill:#333333!important;stroke-width:0;stroke:#333333;}#my-svg .arrowheadPath{fill:#333333;}#my-svg .edgePath .path{stroke:#333333;stroke-width:1px;}#my-svg .flowchart-link{stroke:#333333;fill:none;}#my-svg .edgeLabel{background-color:rgba(232,232,232, 0.8);text-align:center;}#my-svg .edgeLabel p{background-color:rgba(232,232,232, 0.8);}#my-svg .edgeLabel rect{opacity:0.5;background-color:rgba(232,232,232, 0.8);fill:rgba(232,232,232, 0.8);}#my-svg .labelBkg{background-color:rgba(232, 232, 232, 0.5);}#my-svg .cluster rect{fill:#ffffde;stroke:#aaaa33;stroke-width:1px;}#my-svg .cluster text{fill:#333;}#my-svg .cluster span{color:#333;}#my-svg div.mermaidTooltip{position:absolute;text-align:center;max-width:200px;padding:2px;font-family:"trebuchet ms",verdana,arial,sans-serif;font-size:12px;background:hsl(80, 100%, 96.2745098039%);border:1px solid #aaaa33;border-radius:2px;pointer-events:none;z-index:100;}#my-svg .flowchartTitleText{text-anchor:middle;font-size:18px;fill:#333;}#my-svg rect.text{fill:none;stroke-width:0;}#my-svg .icon-shape,#my-svg .image-shape{background-color:rgba(232,232,232, 0.8);text-align:center;}#my-svg .icon-shape p,#my-svg .image-shape p{background-color:rgba(232,232,232, 0.8);padding:2px;}#my-svg .icon-shape .label rect,#my-svg .image-shape .label rect{opacity:0.5;background-color:rgba(232,232,232, 0.8);fill:rgba(232,232,232, 0.8);}#my-svg .label-icon{display:inline-block;height:1em;overflow:visible;vertical-align:-0.125em;}#my-svg .node .label-icon path{fill:currentColor;stroke:revert;stroke-width:revert;}#my-svg .node .neo-node{stroke:#9370DB;}#my-svg [data-look="neo"].node rect,#my-svg [data-look="neo"].cluster rect,#my-svg [data-look="neo"].node polygon{stroke:#9370DB;filter:drop-shadow(1px 2px 2px rgba(185, 185, 185, 1));}#my-svg [data-look="neo"].node path{stroke:#9370DB;stroke-width:1px;}#my-svg [data-look="neo"].node .outer-path{filter:drop-shadow(1px 2px 2px rgba(185, 185, 185, 1));}#my-svg [data-look="neo"].node .neo-line path{stroke:#9370DB;filter:none;}#my-svg [data-look="neo"].node circle{stroke:#9370DB;filter:drop-shadow(1px 2px 2px rgba(185, 185, 185, 1));}#my-svg [data-look="neo"].node circle .state-start{fill:#000000;}#my-svg [data-look="neo"].icon-shape .icon{fill:#9370DB;filter:drop-shadow(1px 2px 2px rgba(185, 185, 185, 1));}#my-svg [data-look="neo"].icon-shape .icon-neo path{stroke:#9370DB;filter:drop-shadow(1px 2px 2px rgba(185, 185, 185, 1));}#my-svg :root{--mermaid-font-family:"trebuchet ms",verdana,arial,sans-serif;}</style><g><marker id="my-svg_flowchart-v2-pointEnd" class="marker flowchart-v2" viewBox="0 0 10 10" refX="5" refY="5" markerUnits="userSpaceOnUse" markerWidth="8" markerHeight="8" orient="auto"><path d="M 0 0 L 10 5 L 0 10 z" class="arrowMarkerPath" style="stroke-width: 1; stroke-dasharray: 1, 0;"/></marker><marker id="my-svg_flowchart-v2-pointStart" class="marker flowchart-v2" viewBox="0 0 10 10" refX="4.5" refY="5" markerUnits="userSpaceOnUse" markerWidth="8" markerHeight="8" orient="auto"><path d="M 0 5 L 10 10 L 10 0 z" class="arrowMarkerPath" style="stroke-width: 1; stroke-dasharray: 1, 0;"/></marker><marker id="my-svg_flowchart-v2-pointEnd-margin" class="marker flowchart-v2" viewBox="0 0 11.5 14" refX="11.5" refY="7" markerUnits="userSpaceOnUse" markerWidth="10.5" markerHeight="14" orient="auto"><path d="M 0 0 L 11.5 7 L 0 14 z" class="arrowMarkerPath" style="stroke-width: 0; stroke-dasharray: 1, 0;"/></marker><marker id="my-svg_flowchart-v2-pointStart-margin" class="marker flowchart-v2" viewBox="0 0 11.5 14" refX="1" refY="7" markerUnits="userSpaceOnUse" markerWidth="11.5" markerHeight="14" orient="auto"><polygon points="0,7 11.5,14 11.5,0" class="arrowMarkerPath" style="stroke-width: 0; stroke-dasharray: 1, 0;"/></marker><marker id="my-svg_flowchart-v2-circleEnd" class="marker flowchart-v2" viewBox="0 0 10 10" refX="11" refY="5" markerUnits="userSpaceOnUse" markerWidth="11" markerHeight="11" orient="auto"><circle cx="5" cy="5" r="5" class="arrowMarkerPath" style="stroke-width: 1; stroke-dasharray: 1, 0;"/></marker><marker id="my-svg_flowchart-v2-circleStart" class="marker flowchart-v2" viewBox="0 0 10 10" refX="-1" refY="5" markerUnits="userSpaceOnUse" markerWidth="11" markerHeight="11" orient="auto"><circle cx="5" cy="5" r="5" class="arrowMarkerPath" style="stroke-width: 1; stroke-dasharray: 1, 0;"/></marker><marker id="my-svg_flowchart-v2-circleEnd-margin" class="marker flowchart-v2" viewBox="0 0 10 10" refY="5" refX="12.25" markerUnits="userSpaceOnUse" markerWidth="14" markerHeight="14" orient="auto"><circle cx="5" cy="5" r="5" class="arrowMarkerPath" style="stroke-width: 0; stroke-dasharray: 1, 0;"/></marker><marker id="my-svg_flowchart-v2-circleStart-margin" class="marker flowchart-v2" viewBox="0 0 10 10" refX="-2" refY="5" markerUnits="userSpaceOnUse" markerWidth="14" markerHeight="14" orient="auto"><circle cx="5" cy="5" r="5" class="arrowMarkerPath" style="stroke-width: 0; stroke-dasharray: 1, 0;"/></marker><marker id="my-svg_flowchart-v2-crossEnd" class="marker cross flowchart-v2" viewBox="0 0 11 11" refX="12" refY="5.2" markerUnits="userSpaceOnUse" markerWidth="11" markerHeight="11" orient="auto"><path d="M 1,1 l 9,9 M 10,1 l -9,9" class="arrowMarkerPath" style="stroke-width: 2; stroke-dasharray: 1, 0;"/></marker><marker id="my-svg_flowchart-v2-crossStart" class="marker cross flowchart-v2" viewBox="0 0 11 11" refX="-1" refY="5.2" markerUnits="userSpaceOnUse" markerWidth="11" markerHeight="11" orient="auto"><path d="M 1,1 l 9,9 M 10,1 l -9,9" class="arrowMarkerPath" style="stroke-width: 2; stroke-dasharray: 1, 0;"/></marker><marker id="my-svg_flowchart-v2-crossEnd-margin" class="marker cross flowchart-v2" viewBox="0 0 15 15" refX="17.7" refY="7.5" markerUnits="userSpaceOnUse" markerWidth="12" markerHeight="12" orient="auto"><path d="M 1,1 L 14,14 M 1,14 L 14,1" class="arrowMarkerPath" style="stroke-width: 2.5;"/></marker><marker id="my-svg_flowchart-v2-crossStart-margin" class="marker cross flowchart-v2" viewBox="0 0 15 15" refX="-3.5" refY="7.5" markerUnits="userSpaceOnUse" markerWidth="12" markerHeight="12" orient="auto"><path d="M 1,1 L 14,14 M 1,14 L 14,1" class="arrowMarkerPath" style="stroke-width: 2.5; stroke-dasharray: 1, 0;"/></marker><g class="root"><g class="clusters"><g class="cluster" id="my-svg-STUB" data-look="classic"><rect style="" x="1620.54296875" y="1073" width="2795.3565711975098" height="200"/><g class="cluster-label" transform="translate(2909.588441848755, 1073)"><foreignObject width="217.265625" height="24"><div xmlns="http://www.w3.org/1999/xhtml" style="display: table-cell; white-space: nowrap; line-height: 1.5;"><span class="nodeLabel"><p>Stubbed — Future Integrations</p></span></div></foreignObject></g></g><g class="cluster" id="my-svg-STR" data-look="classic"><rect style="" x="8" y="8" width="950" height="967"/><g class="cluster-label" transform="translate(415.59375, 8)"><foreignObject width="134.8125" height="24"><div xmlns="http://www.w3.org/1999/xhtml" style="display: table-cell; white-space: nowrap; line-height: 1.5;"><span class="nodeLabel"><p>Stripe — Test Mode</p></span></div></foreignObject></g></g><g class="cluster" id="my-svg-SUPA" data-look="classic"><rect style="" x="2277.60546875" y="701" width="2930.8671875" height="274"/><g class="cluster-label" transform="translate(3636.71875, 701)"><foreignObject width="212.640625" height="24"><div xmlns="http://www.w3.org/1999/xhtml" style="display: table-cell; white-space: nowrap; line-height: 1.5;"><span class="nodeLabel"><p>Supabase — EU West (Ireland)</p></span></div></foreignObject></g></g><g class="cluster" id="my-svg-VCL" data-look="classic"><rect style="" x="978" y="281" width="4302.97265625" height="298"/><g class="cluster-label" transform="translate(2911.306640625, 281)"><foreignObject width="436.359375" height="24"><div xmlns="http://www.w3.org/1999/xhtml" style="display: table-cell; white-space: nowrap; line-height: 1.5;"><span class="nodeLabel"><p>Vercel — Next.js 14 App Router — csl-website-ten.vercel.app</p></span></div></foreignObject></g></g><g class="cluster" id="my-svg-SUPDB" data-look="classic"><rect style="" x="2297.60546875" y="726" width="2118.2940711975098" height="224"/><g class="cluster-label" transform="translate(3239.268129348755, 726)"><foreignObject width="234.96875" height="24"><div xmlns="http://www.w3.org/1999/xhtml" style="display: table-cell; white-space: nowrap; line-height: 1.5;"><span class="nodeLabel"><p>PostgreSQL — Row Level Security</p></span></div></foreignObject></g></g><g class="cluster" id="my-svg-VAPI" data-look="classic"><rect style="" x="1789.3057899475098" y="306" width="2851.6668663024902" height="248"/><g class="cluster-label" transform="translate(3134.404848098755, 306)"><foreignObject width="161.46875" height="24"><div xmlns="http://www.w3.org/1999/xhtml" style="display: table-cell; white-space: nowrap; line-height: 1.5;"><span class="nodeLabel"><p>API Routes — app/api/</p></span></div></foreignObject></g></g></g><g class="edgePaths"><path d="M1612.993,128L1614.879,145.333C1616.764,162.667,1620.535,197.333,1622.42,222.833C1624.306,248.333,1624.306,264.667,1624.306,277C1624.306,289.333,1624.306,297.667,1624.306,305.333C1624.306,313,1624.306,320,1624.306,323.5L1624.306,327" id="my-svg-L_User_PUB_0" class="edge-thickness-normal edge-pattern-solid edge-thickness-normal edge-pattern-solid flowchart-link" style=";" data-edge="true" data-et="edge" data-id="L_User_PUB_0" data-points="W3sieCI6MTYxMi45OTMzMDU5MjkyNDU1LCJ5IjoxMjh9LHsieCI6MTYyNC4zMDU3ODk5NDc1MDk4LCJ5IjoyMzJ9LHsieCI6MTYyNC4zMDU3ODk5NDc1MDk4LCJ5IjoyODF9LHsieCI6MTYyNC4zMDU3ODk5NDc1MDk4LCJ5IjozMDZ9LHsieCI6MTYyNC4zMDU3ODk5NDc1MDk4LCJ5IjozMzF9XQ==" data-look="classic" marker-end="url(#my-svg_flowchart-v2-pointEnd)"/><path d="M1675.8,110.8L2249.162,131C2822.524,151.2,3969.248,191.6,4542.611,219.967C5115.973,248.333,5115.973,264.667,5115.973,277C5115.973,289.333,5115.973,297.667,5115.973,311.333C5115.973,325,5115.973,344,5115.973,353.5L5115.973,363" id="my-svg-L_User_AUTHPG_0" class="edge-thickness-normal edge-pattern-solid edge-thickness-normal edge-pattern-solid flowchart-link" style=";" data-edge="true" data-et="edge" data-id="L_User_AUTHPG_0" data-points="W3sieCI6MTY3NS44MDAxMzk2OTM0ODkyLCJ5IjoxMTAuNzk5NTE1NDQ1ODIxOTJ9LHsieCI6NTExNS45NzI2NTYyNSwieSI6MjMyfSx7IngiOjUxMTUuOTcyNjU2MjUsInkiOjI4MX0seyJ4Ijo1MTE1Ljk3MjY1NjI1LCJ5IjozMDZ9LHsieCI6NTExNS45NzI2NTYyNSwieSI6MzY3fV0=" data-look="classic" marker-end="url(#my-svg_flowchart-v2-pointEnd)"/><path d="M1559.345,127.112L1510.714,144.594C1462.083,162.075,1364.821,197.037,1316.19,222.685C1267.559,248.333,1267.559,264.667,1267.559,277C1267.559,289.333,1267.559,297.667,1267.559,307.333C1267.559,317,1267.559,328,1267.559,333.5L1267.559,339" id="my-svg-L_User_PORTAL_0" class="edge-thickness-normal edge-pattern-solid edge-thickness-normal edge-pattern-solid flowchart-link" style=";" data-edge="true" data-et="edge" data-id="L_User_PORTAL_0" data-points="W3sieCI6MTU1OS4zNDQ5OTQwODgwMjk2LCJ5IjoxMjcuMTEyNDgxNDI0MTA1Mzh9LHsieCI6MTI2Ny41NTg1OTM3NSwieSI6MjMyfSx7IngiOjEyNjcuNTU4NTkzNzUsInkiOjI4MX0seyJ4IjoxMjY3LjU1ODU5Mzc1LCJ5IjozMDZ9LHsieCI6MTI2Ny41NTg1OTM3NSwieSI6MzQzfV0=" data-look="classic" marker-end="url(#my-svg_flowchart-v2-pointEnd)"/><path d="M5115.973,493L5115.973,503.167C5115.973,513.333,5115.973,533.667,5115.973,548C5115.973,562.333,5115.973,570.667,5115.973,585C5115.973,599.333,5115.973,619.667,5115.973,640C5115.973,660.333,5115.973,680.667,5115.973,695C5115.973,709.333,5115.973,717.667,5102.327,729.668C5088.681,741.669,5061.389,757.339,5047.743,765.174L5034.097,773.008" id="my-svg-L_AUTHPG_SAUTH_0" class="edge-thickness-normal edge-pattern-solid edge-thickness-normal edge-pattern-solid flowchart-link" style=";" data-edge="true" data-et="edge" data-id="L_AUTHPG_SAUTH_0" data-points="W3sieCI6NTExNS45NzI2NTYyNSwieSI6NDkzfSx7IngiOjUxMTUuOTcyNjU2MjUsInkiOjU1NH0seyJ4Ijo1MTE1Ljk3MjY1NjI1LCJ5Ijo1Nzl9LHsieCI6NTExNS45NzI2NTYyNSwieSI6NjQwfSx7IngiOjUxMTUuOTcyNjU2MjUsInkiOjcwMX0seyJ4Ijo1MTE1Ljk3MjY1NjI1LCJ5Ijo3MjZ9LHsieCI6NTAzMC42MjgxNjc4Njc2NjA1LCJ5Ijo3NzV9XQ==" data-look="classic" marker-end="url(#my-svg_flowchart-v2-pointEnd)"/><path d="M4805.973,493L4805.973,503.167C4805.973,513.333,4805.973,533.667,4805.973,548C4805.973,562.333,4805.973,570.667,4805.973,585C4805.973,599.333,4805.973,619.667,4805.973,640C4805.973,660.333,4805.973,680.667,4805.973,695C4805.973,709.333,4805.973,717.667,4813.875,729.535C4821.778,741.403,4837.583,756.806,4845.486,764.507L4853.388,772.208" id="my-svg-L_MW_SAUTH_0" class="edge-thickness-normal edge-pattern-solid edge-thickness-normal edge-pattern-solid flowchart-link" style=";" data-edge="true" data-et="edge" data-id="L_MW_SAUTH_0" data-points="W3sieCI6NDgwNS45NzI2NTYyNSwieSI6NDkzfSx7IngiOjQ4MDUuOTcyNjU2MjUsInkiOjU1NH0seyJ4Ijo0ODA1Ljk3MjY1NjI1LCJ5Ijo1Nzl9LHsieCI6NDgwNS45NzI2NTYyNSwieSI6NjQwfSx7IngiOjQ4MDUuOTcyNjU2MjUsInkiOjcwMX0seyJ4Ijo0ODA1Ljk3MjY1NjI1LCJ5Ijo3MjZ9LHsieCI6NDg1Ni4yNTMxNjc4Njc2NjA1LCJ5Ijo3NzV9XQ==" data-look="classic" marker-end="url(#my-svg_flowchart-v2-pointEnd)"/><path d="M4475.973,493L4475.973,503.167C4475.973,513.333,4475.973,533.667,4475.973,548C4475.973,562.333,4475.973,570.667,4475.973,585C4475.973,599.333,4475.973,619.667,4475.973,640C4475.973,660.333,4475.973,680.667,4475.973,695C4475.973,709.333,4475.973,717.667,4527.814,734.883C4579.655,752.1,4683.338,778.199,4735.179,791.249L4787.021,804.299" id="my-svg-L_ARST_SAUTH_0" class="edge-thickness-normal edge-pattern-solid edge-thickness-normal edge-pattern-solid flowchart-link" style=";" data-edge="true" data-et="edge" data-id="L_ARST_SAUTH_0" data-points="W3sieCI6NDQ3NS45NzI2NTYyNSwieSI6NDkzfSx7IngiOjQ0NzUuOTcyNjU2MjUsInkiOjU1NH0seyJ4Ijo0NDc1Ljk3MjY1NjI1LCJ5Ijo1Nzl9LHsieCI6NDQ3NS45NzI2NTYyNSwieSI6NjQwfSx7IngiOjQ0NzUuOTcyNjU2MjUsInkiOjcwMX0seyJ4Ijo0NDc1Ljk3MjY1NjI1LCJ5Ijo3MjZ9LHsieCI6NDc5MC44OTk1Mzk5NDc1MSwieSI6ODA1LjI3NTUyMjAzODU4NTR9XQ==" data-look="classic" marker-end="url(#my-svg_flowchart-v2-pointEnd)"/><path d="M2444.318,454.962L2530.283,471.468C2616.248,487.974,2788.179,520.987,2874.144,541.66C2960.109,562.333,2960.109,570.667,2960.109,585C2960.109,599.333,2960.109,619.667,2960.109,640C2960.109,660.333,2960.109,680.667,2960.109,695C2960.109,709.333,2960.109,717.667,2949.811,727.74C2939.512,737.814,2918.915,749.629,2908.617,755.536L2898.318,761.443" id="my-svg-L_ACHK_TM_0" class="edge-thickness-normal edge-pattern-solid edge-thickness-normal edge-pattern-solid flowchart-link" style=";" data-edge="true" data-et="edge" data-id="L_ACHK_TM_0" data-points="W3sieCI6MjQ0NC4zMTc1MDg2OTc1MDk4LCJ5Ijo0NTQuOTYxNjAyNzEwMDEyMX0seyJ4IjoyOTYwLjEwOTM3NSwieSI6NTU0fSx7IngiOjI5NjAuMTA5Mzc1LCJ5Ijo1Nzl9LHsieCI6Mjk2MC4xMDkzNzUsInkiOjY0MH0seyJ4IjoyOTYwLjEwOTM3NSwieSI6NzAxfSx7IngiOjI5NjAuMTA5Mzc1LCJ5Ijo3MjZ9LHsieCI6Mjg5NC44NDg3NTg2OTc1MDk4LCJ5Ijo3NjMuNDMyOTkxNjgyMDI4Nn1d" data-look="classic" marker-end="url(#my-svg_flowchart-v2-pointEnd)"/><path d="M2713.129,493L2726.053,503.167C2738.977,513.333,2764.824,533.667,2777.748,548C2790.672,562.333,2790.672,570.667,2790.672,585C2790.672,599.333,2790.672,619.667,2790.672,640C2790.672,660.333,2790.672,680.667,2790.672,695C2790.672,709.333,2790.672,717.667,2789.4,727.35C2788.128,737.034,2785.584,748.068,2784.312,753.585L2783.04,759.102" id="my-svg-L_AWBHK_TM_0" class="edge-thickness-normal edge-pattern-solid edge-thickness-normal edge-pattern-solid flowchart-link" style=";" data-edge="true" data-et="edge" data-id="L_AWBHK_TM_0" data-points="W3sieCI6MjcxMy4xMjkxNjUwNjQ5MDQsInkiOjQ5M30seyJ4IjoyNzkwLjY3MTg3NSwieSI6NTU0fSx7IngiOjI3OTAuNjcxODc1LCJ5Ijo1Nzl9LHsieCI6Mjc5MC42NzE4NzUsInkiOjY0MH0seyJ4IjoyNzkwLjY3MTg3NSwieSI6NzAxfSx7IngiOjI3OTAuNjcxODc1LCJ5Ijo3MjZ9LHsieCI6Mjc4Mi4xNDEwMjQwNzg2NDE3LCJ5Ijo3NjN9XQ==" data-look="classic" marker-end="url(#my-svg_flowchart-v2-pointEnd)"/><path d="M2872.79,473.138L2832.175,486.615C2791.561,500.092,2710.331,527.046,2669.716,544.69C2629.102,562.333,2629.102,570.667,2629.102,585C2629.102,599.333,2629.102,619.667,2629.102,640C2629.102,660.333,2629.102,680.667,2629.102,695C2629.102,709.333,2629.102,717.667,2636.062,727.576C2643.021,737.485,2656.941,748.97,2663.901,754.712L2670.861,760.454" id="my-svg-L_APROF_TM_0" class="edge-thickness-normal edge-pattern-solid edge-thickness-normal edge-pattern-solid flowchart-link" style=";" data-edge="true" data-et="edge" data-id="L_APROF_TM_0" data-points="W3sieCI6Mjg3Mi43OTAxNjQ5NDc1MDk4LCJ5Ijo0NzMuMTM3NTIxMTcyNDk2M30seyJ4IjoyNjI5LjEwMTU2MjUsInkiOjU1NH0seyJ4IjoyNjI5LjEwMTU2MjUsInkiOjU3OX0seyJ4IjoyNjI5LjEwMTU2MjUsInkiOjY0MH0seyJ4IjoyNjI5LjEwMTU2MjUsInkiOjcwMX0seyJ4IjoyNjI5LjEwMTU2MjUsInkiOjcyNn0seyJ4IjoyNjczLjk0NjYxODM4NjY3NzUsInkiOjc2M31d" data-look="classic" marker-end="url(#my-svg_flowchart-v2-pointEnd)"/><path d="M3758.857,469L3789.984,483.167C3821.112,497.333,3883.366,525.667,3914.494,544C3945.621,562.333,3945.621,570.667,3945.621,585C3945.621,599.333,3945.621,619.667,3945.621,640C3945.621,660.333,3945.621,680.667,3945.621,695C3945.621,709.333,3945.621,717.667,3922.495,731.34C3899.369,745.013,3853.117,764.026,3829.991,773.533L3806.865,783.039" id="my-svg-L_AST_TSC_0" class="edge-thickness-normal edge-pattern-solid edge-thickness-normal edge-pattern-solid flowchart-link" style=";" data-edge="true" data-et="edge" data-id="L_AST_TSC_0" data-points="W3sieCI6Mzc1OC44NTY5NDkwMDYzNTc0LCJ5Ijo0Njl9LHsieCI6Mzk0NS42MjEwOTM3NSwieSI6NTU0fSx7IngiOjM5NDUuNjIxMDkzNzUsInkiOjU3OX0seyJ4IjozOTQ1LjYyMTA5Mzc1LCJ5Ijo2NDB9LHsieCI6Mzk0NS42MjEwOTM3NSwieSI6NzAxfSx7IngiOjM5NDUuNjIxMDkzNzUsInkiOjcyNn0seyJ4IjozODAzLjE2NTE2NDk0NzUwOTgsInkiOjc4NC41NjAxNjQ1NTk0NzY4fV0=" data-look="classic" marker-end="url(#my-svg_flowchart-v2-pointEnd)"/><path d="M3421.995,469L3434.624,483.167C3447.253,497.333,3472.511,525.667,3485.14,544C3497.77,562.333,3497.77,570.667,3497.77,585C3497.77,599.333,3497.77,619.667,3497.77,640C3497.77,660.333,3497.77,680.667,3497.77,695C3497.77,709.333,3497.77,717.667,3504.774,726.306C3511.778,734.945,3525.786,743.89,3532.79,748.362L3539.794,752.835" id="my-svg-L_APX_TSC_0" class="edge-thickness-normal edge-pattern-solid edge-thickness-normal edge-pattern-solid flowchart-link" style=";" data-edge="true" data-et="edge" data-id="L_APX_TSC_0" data-points="W3sieCI6MzQyMS45OTQ4NjQ4MzI5NzA1LCJ5Ijo0Njl9LHsieCI6MzQ5Ny43Njk1MzEyNSwieSI6NTU0fSx7IngiOjM0OTcuNzY5NTMxMjUsInkiOjU3OX0seyJ4IjozNDk3Ljc2OTUzMTI1LCJ5Ijo2NDB9LHsieCI6MzQ5Ny43Njk1MzEyNSwieSI6NzAxfSx7IngiOjM0OTcuNzY5NTMxMjUsInkiOjcyNn0seyJ4IjozNTQzLjE2NTE2NDk0NzUwOTgsInkiOjc1NC45ODc2NzEyODMxMzh9XQ==" data-look="classic" marker-end="url(#my-svg_flowchart-v2-pointEnd)"/><path d="M2184.318,500.233L2167.731,509.194C2151.144,518.156,2117.97,536.078,2020.196,549.206C1922.422,562.333,1760.047,570.667,1441.414,585C1122.781,599.333,647.891,619.667,410.445,640C173,660.333,173,680.667,173,695C173,709.333,173,717.667,173,727.333C173,737,173,748,173,753.5L173,759" id="my-svg-L_ACHK_STRCHK_0" class="edge-thickness-normal edge-pattern-solid edge-thickness-normal edge-pattern-solid flowchart-link" style=";" data-edge="true" data-et="edge" data-id="L_ACHK_STRCHK_0" data-points="W3sieCI6MjE4NC4zMTc1MDg2OTc1MDk4LCJ5Ijo1MDAuMjMzMzM2OTM0OTQ4MDZ9LHsieCI6MjA4NC43OTY4NzUsInkiOjU1NH0seyJ4IjoxNTk3LjY3MTg3NSwieSI6NTc5fSx7IngiOjE3MywieSI6NjQwfSx7IngiOjE3MywieSI6NzAxfSx7IngiOjE3MywieSI6NzI2fSx7IngiOjE3MywieSI6NzYzfV0=" data-look="classic" marker-end="url(#my-svg_flowchart-v2-pointEnd)"/><path d="M483,183L483,191.167C483,199.333,483,215.667,483,232C483,248.333,483,264.667,483,277C483,289.333,483,297.667,817.554,321.128C1152.108,344.59,1821.216,383.179,2155.77,402.474L2490.324,421.769" id="my-svg-L_STRWBHK_AWBHK_0" class="edge-thickness-normal edge-pattern-solid edge-thickness-normal edge-pattern-solid flowchart-link" style=";" data-edge="true" data-et="edge" data-id="L_STRWBHK_AWBHK_0" data-points="W3sieCI6NDgzLCJ5IjoxODN9LHsieCI6NDgzLCJ5IjoyMzJ9LHsieCI6NDgzLCJ5IjoyODF9LHsieCI6NDgzLCJ5IjozMDZ9LHsieCI6MjQ5NC4zMTc1MDg2OTc1MDk4LCJ5Ijo0MjEuOTk5MTkwMTY1MjQyMDZ9XQ==" data-look="classic" marker-end="url(#my-svg_flowchart-v2-pointEnd)"/><path d="M2003.448,469L2021.417,483.167C2039.387,497.333,2075.327,525.667,2011.031,544C1946.735,562.333,1782.203,570.667,1510.826,585C1239.448,599.333,861.224,619.667,672.112,640C483,660.333,483,680.667,483,695C483,709.333,483,717.667,483,731.333C483,745,483,764,483,773.5L483,783" id="my-svg-L_ABILL_STRBILL_0" class="edge-thickness-normal edge-pattern-solid edge-thickness-normal edge-pattern-solid flowchart-link" style=";" data-edge="true" data-et="edge" data-id="L_ABILL_STRBILL_0" data-points="W3sieCI6MjAwMy40NDc2MTIwMjQxMjI3LCJ5Ijo0Njl9LHsieCI6MjExMS4yNjY3Mjc0NDc1MDk4LCJ5Ijo1NTR9LHsieCI6MTYxNy42NzE4NzUsInkiOjU3OX0seyJ4Ijo0ODMsInkiOjY0MH0seyJ4Ijo0ODMsInkiOjcwMX0seyJ4Ijo0ODMsInkiOjcyNn0seyJ4Ijo0ODMsInkiOjc4N31d" data-look="classic" marker-end="url(#my-svg_flowchart-v2-pointEnd)"/><path d="M1137.559,511.803L1126.382,518.836C1115.206,525.869,1092.853,539.934,1176.205,551.134C1259.557,562.333,1448.615,570.667,1402.365,585C1356.115,599.333,1074.557,619.667,933.779,640C793,660.333,793,680.667,793,695C793,709.333,793,717.667,793,729.333C793,741,793,756,793,763.5L793,771" id="my-svg-L_PORTAL_STRDATA_0" class="edge-thickness-normal edge-pattern-solid edge-thickness-normal edge-pattern-solid flowchart-link" style=";" data-edge="true" data-et="edge" data-id="L_PORTAL_STRDATA_0" data-points="W3sieCI6MTEzNy41NTg1OTM3NSwieSI6NTExLjgwMzA4MDQ2MDY4MTV9LHsieCI6MTA3MC41LCJ5Ijo1NTR9LHsieCI6MTYzNy42NzE4NzUsInkiOjU3OX0seyJ4Ijo3OTMsInkiOjY0MH0seyJ4Ijo3OTMsInkiOjcwMX0seyJ4Ijo3OTMsInkiOjcyNn0seyJ4Ijo3OTMsInkiOjc3NX1d" data-look="classic" marker-end="url(#my-svg_flowchart-v2-pointEnd)"/><path d="M3555.196,441.929L3370.472,460.607C3185.748,479.286,2816.3,516.643,2588.171,539.488C2360.043,562.333,2273.234,570.667,2229.83,585C2186.426,599.333,2186.426,619.667,2186.426,640C2186.426,660.333,2186.426,680.667,2186.426,695C2186.426,709.333,2186.426,717.667,2186.426,740.5C2186.426,763.333,2186.426,800.667,2186.426,838C2186.426,875.333,2186.426,912.667,2186.426,935.5C2186.426,958.333,2186.426,966.667,2186.426,979C2186.426,991.333,2186.426,1007.667,2186.426,1024C2186.426,1040.333,2186.426,1056.667,2181.84,1070.482C2177.254,1084.298,2168.082,1095.596,2163.496,1101.245L2158.91,1106.894" id="my-svg-L_AST_ZOHO_0" class="edge-thickness-normal edge-pattern-dotted edge-thickness-normal edge-pattern-solid flowchart-link" style=";" data-edge="true" data-et="edge" data-id="L_AST_ZOHO_0" data-points="W3sieCI6MzU1NS4xOTY0MTQ5NDc1MDk4LCJ5Ijo0NDEuOTI4NTM1MjIxOTg5NTN9LHsieCI6MjQ0Ni44NTE1NjI1LCJ5Ijo1NTR9LHsieCI6MjE4Ni40MjU3ODEyNSwieSI6NTc5fSx7IngiOjIxODYuNDI1NzgxMjUsInkiOjY0MH0seyJ4IjoyMTg2LjQyNTc4MTI1LCJ5Ijo3MDF9LHsieCI6MjE4Ni40MjU3ODEyNSwieSI6NzI2fSx7IngiOjIxODYuNDI1NzgxMjUsInkiOjgzOH0seyJ4IjoyMTg2LjQyNTc4MTI1LCJ5Ijo5NTB9LHsieCI6MjE4Ni40MjU3ODEyNSwieSI6OTc1fSx7IngiOjIxODYuNDI1NzgxMjUsInkiOjEwMjR9LHsieCI6MjE4Ni40MjU3ODEyNSwieSI6MTA3M30seyJ4IjoyMTU2LjM4OTI5Njg3NSwieSI6MTExMH1d" data-look="classic" marker-end="url(#my-svg_flowchart-v2-pointEnd)"/><path d="M3269.259,444.181L3116.994,462.484C2964.73,480.787,2660.201,517.394,2452.669,539.863C2245.137,562.333,2134.602,570.667,2079.334,585C2024.066,599.333,2024.066,619.667,2024.066,640C2024.066,660.333,2024.066,680.667,2024.066,695C2024.066,709.333,2024.066,717.667,2024.066,740.5C2024.066,763.333,2024.066,800.667,2024.066,838C2024.066,875.333,2024.066,912.667,2024.066,935.5C2024.066,958.333,2024.066,966.667,2024.066,979C2024.066,991.333,2024.066,1007.667,2024.066,1024C2024.066,1040.333,2024.066,1056.667,2028.652,1070.482C2033.238,1084.298,2042.41,1095.596,2046.996,1101.245L2051.582,1106.894" id="my-svg-L_APX_ZOHO_0" class="edge-thickness-normal edge-pattern-dotted edge-thickness-normal edge-pattern-solid flowchart-link" style=";" data-edge="true" data-et="edge" data-id="L_APX_ZOHO_0" data-points="W3sieCI6MzI2OS4yNTg5MTQ5NDc1MDk4LCJ5Ijo0NDQuMTgwNjQzNTg5NTY3MX0seyJ4IjoyMzU1LjY3MTg3NSwieSI6NTU0fSx7IngiOjIwMjQuMDY2NDA2MjUsInkiOjU3OX0seyJ4IjoyMDI0LjA2NjQwNjI1LCJ5Ijo2NDB9LHsieCI6MjAyNC4wNjY0MDYyNSwieSI6NzAxfSx7IngiOjIwMjQuMDY2NDA2MjUsInkiOjcyNn0seyJ4IjoyMDI0LjA2NjQwNjI1LCJ5Ijo4Mzh9LHsieCI6MjAyNC4wNjY0MDYyNSwieSI6OTUwfSx7IngiOjIwMjQuMDY2NDA2MjUsInkiOjk3NX0seyJ4IjoyMDI0LjA2NjQwNjI1LCJ5IjoxMDI0fSx7IngiOjIwMjQuMDY2NDA2MjUsInkiOjEwNzN9LHsieCI6MjA1NC4xMDI4OTA2MjUsInkiOjExMTB9XQ==" data-look="classic" marker-end="url(#my-svg_flowchart-v2-pointEnd)"/><path d="M2494.318,476.633L2455.958,489.527C2417.598,502.422,2340.879,528.211,2222.999,545.272C2105.118,562.333,1946.077,570.667,1866.556,585C1787.035,599.333,1787.035,619.667,1787.035,640C1787.035,660.333,1787.035,680.667,1787.035,695C1787.035,709.333,1787.035,717.667,1787.035,740.5C1787.035,763.333,1787.035,800.667,1787.035,838C1787.035,875.333,1787.035,912.667,1787.035,935.5C1787.035,958.333,1787.035,966.667,1787.035,979C1787.035,991.333,1787.035,1007.667,1787.035,1024C1787.035,1040.333,1787.035,1056.667,1787.035,1068.333C1787.035,1080,1787.035,1087,1787.035,1090.5L1787.035,1094" id="my-svg-L_AWBHK_RESEND_0" class="edge-thickness-normal edge-pattern-dotted edge-thickness-normal edge-pattern-solid flowchart-link" style=";" data-edge="true" data-et="edge" data-id="L_AWBHK_RESEND_0" data-points="W3sieCI6MjQ5NC4zMTc1MDg2OTc1MDk4LCJ5Ijo0NzYuNjMyODEwNjI5NDU3MTR9LHsieCI6MjI2NC4xNjAxNTYyNSwieSI6NTU0fSx7IngiOjE3ODcuMDM1MTU2MjUsInkiOjU3OX0seyJ4IjoxNzg3LjAzNTE1NjI1LCJ5Ijo2NDB9LHsieCI6MTc4Ny4wMzUxNTYyNSwieSI6NzAxfSx7IngiOjE3ODcuMDM1MTU2MjUsInkiOjcyNn0seyJ4IjoxNzg3LjAzNTE1NjI1LCJ5Ijo4Mzh9LHsieCI6MTc4Ny4wMzUxNTYyNSwieSI6OTUwfSx7IngiOjE3ODcuMDM1MTU2MjUsInkiOjk3NX0seyJ4IjoxNzg3LjAzNTE1NjI1LCJ5IjoxMDI0fSx7IngiOjE3ODcuMDM1MTU2MjUsInkiOjEwNzN9LHsieCI6MTc4Ny4wMzUxNTYyNSwieSI6MTA5OH1d" data-look="classic" marker-end="url(#my-svg_flowchart-v2-pointEnd)"/><path d="M4250.9,901L4250.9,909.167C4250.9,917.333,4250.9,933.667,4250.9,946C4250.9,958.333,4250.9,966.667,4250.9,979C4250.9,991.333,4250.9,1007.667,4250.9,1024C4250.9,1040.333,4250.9,1056.667,4250.9,1070.333C4250.9,1084,4250.9,1095,4250.9,1100.5L4250.9,1106" id="my-svg-L_TEV_GDRIVE_0" class="edge-thickness-normal edge-pattern-dotted edge-thickness-normal edge-pattern-solid flowchart-link" style=";" data-edge="true" data-et="edge" data-id="L_TEV_GDRIVE_0" data-points="W3sieCI6NDI1MC44OTk1Mzk5NDc1MSwieSI6OTAxfSx7IngiOjQyNTAuODk5NTM5OTQ3NTEsInkiOjk1MH0seyJ4Ijo0MjUwLjg5OTUzOTk0NzUxLCJ5Ijo5NzV9LHsieCI6NDI1MC44OTk1Mzk5NDc1MSwieSI6MTAyNH0seyJ4Ijo0MjUwLjg5OTUzOTk0NzUxLCJ5IjoxMDczfSx7IngiOjQyNTAuODk5NTM5OTQ3NTEsInkiOjExMTB9XQ==" data-look="classic" marker-end="url(#my-svg_flowchart-v2-pointEnd)"/><path d="M3962.032,889L3962.032,899.167C3962.032,909.333,3962.032,929.667,3962.032,944C3962.032,958.333,3962.032,966.667,3962.032,979C3962.032,991.333,3962.032,1007.667,3962.032,1024C3962.032,1040.333,3962.032,1056.667,3987.88,1073.781C4013.728,1090.896,4065.424,1108.792,4091.272,1117.74L4117.12,1126.688" id="my-svg-L_TDC_GDRIVE_0" class="edge-thickness-normal edge-pattern-dotted edge-thickness-normal edge-pattern-solid flowchart-link" style=";" data-edge="true" data-et="edge" data-id="L_TDC_GDRIVE_0" data-points="W3sieCI6Mzk2Mi4wMzIzNTI0NDc1MDk4LCJ5Ijo4ODl9LHsieCI6Mzk2Mi4wMzIzNTI0NDc1MDk4LCJ5Ijo5NTB9LHsieCI6Mzk2Mi4wMzIzNTI0NDc1MDk4LCJ5Ijo5NzV9LHsieCI6Mzk2Mi4wMzIzNTI0NDc1MDk4LCJ5IjoxMDI0fSx7IngiOjM5NjIuMDMyMzUyNDQ3NTA5OCwieSI6MTA3M30seyJ4Ijo0MTIwLjg5OTUzOTk0NzUxLCJ5IjoxMTI3Ljk5NjYxOTMzNzM5fV0=" data-look="classic" marker-end="url(#my-svg_flowchart-v2-pointEnd)"/><path d="M2368.697,171L2359.634,181.167C2350.57,191.333,2332.444,211.667,2323.381,229.333C2314.318,247,2314.318,262,2314.318,269.5L2314.318,277" id="my-svg-L_GH_VCL_0" class="edge-thickness-normal edge-pattern-solid edge-thickness-normal edge-pattern-solid flowchart-link" style=";" data-edge="true" data-et="edge" data-id="L_GH_VCL_0" data-points="W3sieCI6MjM2OC42OTY5NzUxODUwMjUsInkiOjE3MX0seyJ4IjoyMzE0LjMxNzUwODY5NzUwOTgsInkiOjIzMn0seyJ4IjoyMzE0LjMxNzUwODY5NzUwOTgsInkiOjI4MX0seyJ4IjoyMzE0LjMxNzUwODY5NzUwOTgsInkiOjMwNn0seyJ4IjoyMzE0LjMxNzUwODY5NzUwOTgsInkiOjM1NX1d" data-look="classic" marker-end="url(#my-svg_flowchart-v2-pointEnd)"/><path d="M1397.559,488.779L1421.6,499.649C1445.641,510.519,1493.723,532.26,1660.815,547.297C1827.906,562.333,2114.006,570.667,2257.056,585C2400.105,599.333,2400.105,619.667,2400.105,640C2400.105,660.333,2400.105,680.667,2400.105,694.333C2400.105,708,2400.105,715,2400.105,718.5L2400.105,722" id="my-svg-L_PORTAL_SUPDB_0" class="edge-thickness-normal edge-pattern-solid edge-thickness-normal edge-pattern-solid flowchart-link" style=";" data-edge="true" data-et="edge" data-id="L_PORTAL_SUPDB_0" data-points="W3sieCI6MTM5Ny41NTg1OTM3NSwieSI6NDg4Ljc3OTA4NzcxMTc2ODQ1fSx7IngiOjE1NDEuODA1Nzg5OTQ3NTA5OCwieSI6NTU0fSx7IngiOjI0MDAuMTA1NDY4NzUsInkiOjU3OX0seyJ4IjoyNDAwLjEwNTQ2ODc1LCJ5Ijo2NDB9LHsieCI6MjQwMC4xMDU0Njg3NSwieSI6NzAxfSx7IngiOjI0MDAuMTA1NDY4NzUsInkiOjcyNn0seyJ4IjoyNjM0Ljg0ODc1ODY5NzUwOTgsInkiOjc5OC4wODE1MTM3NjI0NzI5fV0=" data-look="classic" marker-end="url(#my-svg_flowchart-v2-pointEnd)"/></g><g class="edgeLabels"><g class="edgeLabel" transform="translate(1624.3057899475098, 232)"><g class="label" data-id="L_User_PUB_0" transform="translate(-65.1796875, -12)"><foreignObject width="130.359375" height="24"><div xmlns="http://www.w3.org/1999/xhtml" class="labelBkg" style="display: table-cell; white-space: nowrap; line-height: 1.5; max-width: 200px; text-align: center;"><span class="edgeLabel"><p>browse public site</p></span></div></foreignObject></g></g><g class="edgeLabel" transform="translate(5115.97265625, 232)"><g class="label" data-id="L_User_AUTHPG_0" transform="translate(-84.390625, -12)"><foreignObject width="168.78125" height="24"><div xmlns="http://www.w3.org/1999/xhtml" class="labelBkg" style="display: table-cell; white-space: nowrap; line-height: 1.5; max-width: 200px; text-align: center;"><span class="edgeLabel"><p>sign in / sign up / reset</p></span></div></foreignObject></g></g><g class="edgeLabel" transform="translate(1267.55859375, 232)"><g class="label" data-id="L_User_PORTAL_0" transform="translate(-77.8984375, -12)"><foreignObject width="155.796875" height="24"><div xmlns="http://www.w3.org/1999/xhtml" class="labelBkg" style="display: table-cell; white-space: nowrap; line-height: 1.5; max-width: 200px; text-align: center;"><span class="edgeLabel"><p>authenticated session</p></span></div></foreignObject></g></g><g class="edgeLabel" transform="translate(5115.97265625, 640)"><g class="label" data-id="L_AUTHPG_SAUTH_0" transform="translate(-72.234375, -36)"><foreignObject width="144.46875" height="72"><div xmlns="http://www.w3.org/1999/xhtml" class="labelBkg" style="display: table-cell; white-space: nowrap; line-height: 1.5; max-width: 200px; text-align: center;"><span class="edgeLabel"><p>signInWithPassword<br />signInWithOtp<br />signUp · updateUser</p></span></div></foreignObject></g></g><g class="edgeLabel" transform="translate(4805.97265625, 640)"><g class="label" data-id="L_MW_SAUTH_0" transform="translate(-51.1484375, -24)"><foreignObject width="102.296875" height="48"><div xmlns="http://www.w3.org/1999/xhtml" class="labelBkg" style="display: table-cell; white-space: nowrap; line-height: 1.5; max-width: 200px; text-align: center;"><span class="edgeLabel"><p>getSession<br />refreshSession</p></span></div></foreignObject></g></g><g class="edgeLabel" transform="translate(4475.97265625, 640)"><g class="label" data-id="L_ARST_SAUTH_0" transform="translate(-82.1953125, -12)"><foreignObject width="164.390625" height="24"><div xmlns="http://www.w3.org/1999/xhtml" class="labelBkg" style="display: table-cell; white-space: nowrap; line-height: 1.5; max-width: 200px; text-align: center;"><span class="edgeLabel"><p>resetPasswordForEmail</p></span></div></foreignObject></g></g><g class="edgeLabel" transform="translate(2960.109375, 640)"><g class="label" data-id="L_ACHK_TM_0" transform="translate(-81.1875, -12)"><foreignObject width="162.375" height="24"><div xmlns="http://www.w3.org/1999/xhtml" class="labelBkg" style="display: table-cell; white-space: nowrap; line-height: 1.5; max-width: 200px; text-align: center;"><span class="edgeLabel"><p>read member by email</p></span></div></foreignObject></g></g><g class="edgeLabel" transform="translate(2790.671875, 640)"><g class="label" data-id="L_AWBHK_TM_0" transform="translate(-68.25, -24)"><foreignObject width="136.5" height="48"><div xmlns="http://www.w3.org/1999/xhtml" class="labelBkg" style="display: table-cell; white-space: nowrap; line-height: 1.5; max-width: 200px; text-align: center;"><span class="edgeLabel"><p>upsert member<br />set status on event</p></span></div></foreignObject></g></g><g class="edgeLabel" transform="translate(2629.1015625, 640)"><g class="label" data-id="L_APROF_TM_0" transform="translate(-73.3203125, -12)"><foreignObject width="146.640625" height="24"><div xmlns="http://www.w3.org/1999/xhtml" class="labelBkg" style="display: table-cell; white-space: nowrap; line-height: 1.5; max-width: 200px; text-align: center;"><span class="edgeLabel"><p>update profile fields</p></span></div></foreignObject></g></g><g class="edgeLabel" transform="translate(3945.62109375, 640)"><g class="label" data-id="L_AST_TSC_0" transform="translate(-38.7109375, -12)"><foreignObject width="77.421875" height="24"><div xmlns="http://www.w3.org/1999/xhtml" class="labelBkg" style="display: table-cell; white-space: nowrap; line-height: 1.5; max-width: 200px; text-align: center;"><span class="edgeLabel"><p>insert case</p></span></div></foreignObject></g></g><g class="edgeLabel" transform="translate(3497.76953125, 640)"><g class="label" data-id="L_APX_TSC_0" transform="translate(-38.7109375, -12)"><foreignObject width="77.421875" height="24"><div xmlns="http://www.w3.org/1999/xhtml" class="labelBkg" style="display: table-cell; white-space: nowrap; line-height: 1.5; max-width: 200px; text-align: center;"><span class="edgeLabel"><p>insert case</p></span></div></foreignObject></g></g><g class="edgeLabel" transform="translate(173, 640)"><g class="label" data-id="L_ACHK_STRCHK_0" transform="translate(-54.375, -12)"><foreignObject width="108.75" height="24"><div xmlns="http://www.w3.org/1999/xhtml" class="labelBkg" style="display: table-cell; white-space: nowrap; line-height: 1.5; max-width: 200px; text-align: center;"><span class="edgeLabel"><p>sessions.create</p></span></div></foreignObject></g></g><g class="edgeLabel" transform="translate(483, 232)"><g class="label" data-id="L_STRWBHK_AWBHK_0" transform="translate(-92.1640625, -12)"><foreignObject width="184.328125" height="24"><div xmlns="http://www.w3.org/1999/xhtml" class="labelBkg" style="display: table-cell; white-space: nowrap; line-height: 1.5; max-width: 200px; text-align: center;"><span class="edgeLabel"><p>POST — signature verified</p></span></div></foreignObject></g></g><g class="edgeLabel" transform="translate(483, 640)"><g class="label" data-id="L_ABILL_STRBILL_0" transform="translate(-100.65625, -12)"><foreignObject width="201.3125" height="24"><div xmlns="http://www.w3.org/1999/xhtml" class="labelBkg" style="display: table; white-space: break-spaces; line-height: 1.5; max-width: 200px; text-align: center; width: 200px;"><span class="edgeLabel"><p>billingPortal.sessions.create</p></span></div></foreignObject></g></g><g class="edgeLabel" transform="translate(793, 640)"><g class="label" data-id="L_PORTAL_STRDATA_0" transform="translate(-78.0859375, -24)"><foreignObject width="156.171875" height="48"><div xmlns="http://www.w3.org/1999/xhtml" class="labelBkg" style="display: table-cell; white-space: nowrap; line-height: 1.5; max-width: 200px; text-align: center;"><span class="edgeLabel"><p>charges.list<br />subscriptions.retrieve</p></span></div></foreignObject></g></g><g class="edgeLabel" transform="translate(2186.42578125, 838)"><g class="label" data-id="L_AST_ZOHO_0" transform="translate(-71.1796875, -24)"><foreignObject width="142.359375" height="48"><div xmlns="http://www.w3.org/1999/xhtml" class="labelBkg" style="display: table-cell; white-space: nowrap; line-height: 1.5; max-width: 200px; text-align: center;"><span class="edgeLabel"><p>fire-and-forget stub<br />(lib/zoho.ts)</p></span></div></foreignObject></g></g><g class="edgeLabel" transform="translate(2024.06640625, 838)"><g class="label" data-id="L_APX_ZOHO_0" transform="translate(-71.1796875, -24)"><foreignObject width="142.359375" height="48"><div xmlns="http://www.w3.org/1999/xhtml" class="labelBkg" style="display: table-cell; white-space: nowrap; line-height: 1.5; max-width: 200px; text-align: center;"><span class="edgeLabel"><p>fire-and-forget stub<br />(lib/zoho.ts)</p></span></div></foreignObject></g></g><g class="edgeLabel" transform="translate(1787.03515625, 838)"><g class="label" data-id="L_AWBHK_RESEND_0" transform="translate(-71.84375, -24)"><foreignObject width="143.6875" height="48"><div xmlns="http://www.w3.org/1999/xhtml" class="labelBkg" style="display: table-cell; white-space: nowrap; line-height: 1.5; max-width: 200px; text-align: center;"><span class="edgeLabel"><p>welcome email stub<br />(lib/resend.ts)</p></span></div></foreignObject></g></g><g class="edgeLabel" transform="translate(4250.89953994751, 1024)"><g class="label" data-id="L_TEV_GDRIVE_0" transform="translate(-85.2265625, -24)"><foreignObject width="170.453125" height="48"><div xmlns="http://www.w3.org/1999/xhtml" class="labelBkg" style="display: table-cell; white-space: nowrap; line-height: 1.5; max-width: 200px; text-align: center;"><span class="edgeLabel"><p>STUB_ file URLs<br />(replace before go-live)</p></span></div></foreignObject></g></g><g class="edgeLabel" transform="translate(3962.0323524475098, 1024)"><g class="label" data-id="L_TDC_GDRIVE_0" transform="translate(-85.2265625, -24)"><foreignObject width="170.453125" height="48"><div xmlns="http://www.w3.org/1999/xhtml" class="labelBkg" style="display: table-cell; white-space: nowrap; line-height: 1.5; max-width: 200px; text-align: center;"><span class="edgeLabel"><p>STUB_ file URLs<br />(replace before go-live)</p></span></div></foreignObject></g></g><g class="edgeLabel" transform="translate(2325.20401, 219.7881)"><g class="label" data-id="L_GH_VCL_0" transform="translate(-100, -24)"><foreignObject width="200" height="48"><div xmlns="http://www.w3.org/1999/xhtml" class="labelBkg" style="display: table; white-space: break-spaces; line-height: 1.5; max-width: 200px; text-align: center; width: 200px;"><span class="edgeLabel"><p>push to main triggers auto-deploy</p></span></div></foreignObject></g></g><g class="edgeLabel" transform="translate(1965.30466, 566.3354)"><g class="label" data-id="L_PORTAL_SUPDB_0" transform="translate(-100, -36)"><foreignObject width="200" height="72"><div xmlns="http://www.w3.org/1999/xhtml" class="labelBkg" style="display: table; white-space: break-spaces; line-height: 1.5; max-width: 200px; text-align: center; width: 200px;"><span class="edgeLabel"><p>read member · events<br />documents · shareholder_cases</p></span></div></foreignObject></g></g></g><g class="nodes"><g class="node default" id="my-svg-flowchart-User-0" data-look="classic" transform="translate(1610.2890625, 108)"><g class="basic label-container outer-path"><path d="M-45.65625 -19.5 C-9.513269307591656 -19.5, 26.629711384816687 -19.5, 45.65625 -19.5 C45.65625 -19.5, 45.65625 -19.5, 45.65625 -19.5 C45.989675621318725 -19.48930768929791, 46.32310124263745 -19.47861537859582, 46.9056192896239 -19.45993515863156 C47.24643141065076 -19.42705742320264, 47.587243531677615 -19.394179687773725, 48.149854652847864 -19.3399052695533 C48.61905166147305 -19.264049135875926, 49.08824867009824 -19.188193002198553, 49.38384325967676 -19.140403561325776 C49.868226537260526 -19.029846239113567, 50.3526098148443 -18.91928891690136, 50.60251438623539 -18.862249829261074 C50.970091921102316 -18.753154746366427, 51.337669455969234 -18.64405966347178, 51.800860251460605 -18.50658706670804 C52.247772128032096 -18.342119364921633, 52.69468400460358 -18.177651663135222, 52.9739565951478 -18.074876768247425 C53.24695670928149 -17.95402771598109, 53.519956823415185 -17.83317866371476, 54.11698291279238 -17.568892924097174 C54.40025872982075 -17.421108111800294, 54.68353454684912 -17.273323299503417, 55.22524226407678 -16.990714730406097 C55.49909509005555 -16.82470353795993, 55.77294791603432 -16.65869234551376, 56.2941805736057 -16.342718045390892 C56.52599822545344 -16.181012086686316, 56.757815877301184 -16.01930612798174, 57.31940534457871 -15.627565626425154 C57.6140074393015 -15.392628295574712, 57.9086095340243 -15.157690964724269, 58.296703708501866 -14.848196188198123 C58.5945490363784 -14.57770094197619, 58.89239436425494 -14.307205695754254, 59.22205973676799 -14.007812326905688 C59.483823259994715 -13.737519997989155, 59.745586783221434 -13.467227669072622, 60.09167094296865 -13.10986736009568 C60.2614123300154 -12.910479468312028, 60.43115371706215 -12.711091576528375, 60.90196390812658 -12.158051136245305 C61.123852608605475 -11.860740492080055, 61.34574130908436 -11.563429847914806, 61.649608964640635 -11.156274872382312 C61.90528552356189 -10.763487019110057, 62.16096208248315 -10.370699165837802, 62.33153387860425 -10.108655082055241 C62.534905654670766 -9.74754790002372, 62.738277430737284 -9.3864407179922, 62.944936474273504 -9.019496659696287 C63.12710509186991 -8.64121962747335, 63.30927370946631 -8.262942595250411, 63.48729614880834 -7.893275190886684 C63.616249331994354 -7.574758335277047, 63.74520251518037 -7.25624147966741, 63.956384229970325 -6.734618561215508 C64.05938381453615 -6.424400223258416, 64.16238339910198 -6.114181885301323, 64.35027313421489 -5.548287939305138 C64.46420228764858 -5.1138267000550535, 64.57813144108225 -4.679365460804969, 64.66734428754556 -4.339158212148133 C64.73900394459763 -3.9712010184596407, 64.8106636016497 -3.603243824771148, 64.90629477658177 -3.1121979531509023 C64.94237843330102 -2.8323402371604343, 64.97846209002026 -2.552482521169966, 65.06614270250937 -1.872449005199798 C65.09176171272544 -1.473412241791487, 65.11738072294153 -1.0743754783831758, 65.14623121591342 -0.6250057626472757 C65.14623121591342 -0.18394888914858354, 65.14623121591342 0.2571079843501086, 65.14623121591342 0.625005762647271 C65.13005327673402 0.8769902239637832, 65.11387533755463 1.1289746852802955, 65.06614270250937 1.8724490051997846 C65.03346903740258 2.1258594996230835, 65.00079537229578 2.379269994046383, 64.90629477658177 3.1121979531508885 C64.85194035438242 3.391296423333394, 64.79758593218305 3.6703948935159003, 64.66734428754556 4.339158212148129 C64.55083395342521 4.783462612047256, 64.43432361930486 5.227767011946382, 64.35027313421489 5.548287939305125 C64.26459838972221 5.806326619300283, 64.17892364522955 6.064365299295442, 63.956384229970325 6.734618561215495 C63.85567045888208 6.983383522971753, 63.75495668779384 7.232148484728011, 63.48729614880834 7.893275190886679 C63.35925632745442 8.159152619541407, 63.23121650610049 8.425030048196135, 62.944936474273504 9.019496659696284 C62.74437907161263 9.375606636759882, 62.54382166895175 9.73171661382348, 62.33153387860425 10.108655082055236 C62.16382159154847 10.366306192027773, 61.996109304492684 10.62395730200031, 61.64960896464064 11.156274872382301 C61.403408270691855 11.486161372929045, 61.15720757674306 11.816047873475787, 60.90196390812658 12.158051136245302 C60.663887598923566 12.437709115960924, 60.425811289720556 12.717367095676547, 60.09167094296866 13.10986736009567 C59.74699219890288 13.465776461994759, 59.4023134548371 13.82168556389385, 59.22205973676799 14.007812326905684 C58.961316054597084 14.24461284015352, 58.70057237242617 14.481413353401356, 58.29670370850189 14.848196188198111 C57.98417441173762 15.097429985613749, 57.671645114973344 15.346663783029385, 57.31940534457871 15.627565626425152 C57.033846252046715 15.826759287721593, 56.74828715951472 16.025952949018034, 56.29418057360571 16.34271804539089 C56.0410394233263 16.496173698312788, 55.78789827304689 16.649629351234687, 55.22524226407678 16.990714730406093 C54.86684187581548 17.177691983395608, 54.50844148755419 17.364669236385126, 54.11698291279239 17.56889292409717 C53.678200681752735 17.763128801766, 53.239418450713075 17.957364679434832, 52.973956595147804 18.07487676824742 C52.715370755213115 18.17003874768469, 52.45678491527842 18.265200727121957, 51.80086025146062 18.506587066708033 C51.54291145218714 18.583144916331523, 51.284962652913656 18.659702765955018, 50.60251438623541 18.86224982926107 C50.242926212684246 18.944323483341996, 49.88333803913308 19.026397137422922, 49.383843259676766 19.140403561325773 C48.93178650456049 19.21348859174048, 48.47972974944421 19.286573622155185, 48.14985465284788 19.3399052695533 C47.77638253615465 19.37593367548476, 47.40291041946142 19.41196208141622, 46.9056192896239 19.45993515863156 C46.46584691951754 19.47403780257588, 46.02607454941118 19.4881404465202, 45.65625000000001 19.5 C45.65625000000001 19.5, 45.65625 19.5, 45.65625 19.5 C19.750047258979798 19.5, -6.156155482040404 19.5, -45.65624999999999 19.5 C-45.93001722884835 19.491220817826417, -46.20378445769671 19.482441635652837, -46.90561928962389 19.45993515863156 C-47.17434479772761 19.4340115320545, -47.443070305831334 19.408087905477444, -48.14985465284787 19.3399052695533 C-48.62721804635601 19.262728858099308, -49.104581439864155 19.185552446645318, -49.38384325967676 19.140403561325773 C-49.8014356268587 19.04509082856136, -50.21902799404064 18.949778095796947, -50.602514386235384 18.862249829261074 C-50.88567699080066 18.778208654576943, -51.168839595365945 18.694167479892812, -51.80086025146059 18.506587066708043 C-52.07349763334074 18.406253989943817, -52.346135015220895 18.30592091317959, -52.9739565951478 18.074876768247425 C-53.34430408865381 17.910934918840375, -53.71465158215982 17.74699306943333, -54.11698291279238 17.568892924097174 C-54.48145898586079 17.37874599023545, -54.8459350589292 17.18859905637373, -55.22524226407678 16.990714730406097 C-55.51867772227673 16.812832431227132, -55.812113180476665 16.634950132048168, -56.294180573605686 16.3427180453909 C-56.67850324087999 16.07463118976047, -57.062825908154295 15.806544334130043, -57.31940534457871 15.627565626425156 C-57.57539561974379 15.423420194168326, -57.831385894908856 15.219274761911494, -58.296703708501866 14.848196188198125 C-58.57976829101452 14.591124423838577, -58.862832873527175 14.334052659479028, -59.222059736767974 14.007812326905697 C-59.47982609704048 13.74164739691258, -59.737592457312985 13.475482466919463, -60.091670942968655 13.109867360095677 C-60.35538625588796 12.800092347714259, -60.61910156880726 12.490317335332842, -60.901963908126575 12.158051136245307 C-61.126138791497915 11.85767721527972, -61.35031367486926 11.557303294314133, -61.649608964640635 11.156274872382316 C-61.836893627392044 10.868555337422519, -62.02417829014346 10.580835802462722, -62.33153387860425 10.108655082055249 C-62.52782288186148 9.760124080355126, -62.72411188511872 9.411593078655004, -62.944936474273504 9.019496659696289 C-63.138000640835656 8.618594786918568, -63.331064807397816 8.217692914140846, -63.48729614880834 7.893275190886686 C-63.590717097093545 7.637823449114218, -63.69413804537875 7.3823717073417505, -63.956384229970325 6.73461856121551 C-64.09619179863769 6.313540439700445, -64.23599936730504 5.892462318185379, -64.35027313421489 5.5482879393051325 C-64.4150334854623 5.301328652684982, -64.4797938367097 5.054369366064833, -64.66734428754556 4.339158212148136 C-64.75833364733205 3.8719470802525335, -64.84932300711853 3.4047359483569317, -64.90629477658177 3.112197953150904 C-64.96293607314247 2.6728992421152746, -65.01957736970317 2.233600531079645, -65.06614270250937 1.872449005199809 C-65.0957165089119 1.411813098933371, -65.12529031531444 0.9511771926669329, -65.14623121591342 0.6250057626472781 C-65.14623121591342 0.2824995109714164, -65.14623121591342 -0.06000674070444534, -65.14623121591342 -0.6250057626472687 C-65.12444899434615 -0.964281445850129, -65.1026667727789 -1.3035571290529893, -65.06614270250937 -1.8724490051997822 C-65.01200921632821 -2.2922976341548984, -64.95787573014705 -2.7121462631100144, -64.90629477658177 -3.112197953150895 C-64.83894659120645 -3.4580166510091987, -64.77159840583111 -3.8038353488675023, -64.66734428754556 -4.339158212148126 C-64.57985654743916 -4.6727868826002235, -64.49236880733278 -5.006415553052321, -64.35027313421489 -5.548287939305123 C-64.22165891532467 -5.935653474709527, -64.09304469643445 -6.323019010113932, -63.95638422997033 -6.734618561215485 C-63.791296881089735 -7.142387504697323, -63.62620953220913 -7.550156448179162, -63.48729614880834 -7.893275190886676 C-63.352028813729085 -8.174160706436073, -63.21676147864983 -8.45504622198547, -62.944936474273504 -9.019496659696282 C-62.792357724104214 -9.290415680895679, -62.63977897393493 -9.561334702095074, -62.33153387860425 -10.108655082055243 C-62.06184999725693 -10.522961944066658, -61.792166115909616 -10.937268806078073, -61.64960896464064 -11.156274872382308 C-61.46068942968997 -11.409409838292508, -61.27176989473931 -11.662544804202707, -60.90196390812659 -12.158051136245302 C-60.624074244596265 -12.48447614739782, -60.34618458106594 -12.810901158550335, -60.09167094296866 -13.10986736009567 C-59.77632923442381 -13.435483564203988, -59.46098752587896 -13.761099768312306, -59.222059736767996 -14.007812326905677 C-58.91023192516696 -14.291006094889957, -58.59840411356593 -14.574199862874236, -58.29670370850189 -14.848196188198107 C-57.92215988623751 -15.146884919424252, -57.54761606397313 -15.445573650650397, -57.31940534457872 -15.627565626425149 C-57.05763211271297 -15.810167300994125, -56.79585888084723 -15.9927689755631, -56.294180573605715 -16.342718045390885 C-56.044429302133814 -16.49411873385853, -55.79467803066192 -16.64551942232618, -55.22524226407679 -16.99071473040609 C-54.91357328760439 -17.153312235798232, -54.601904311132 -17.31590974119037, -54.11698291279239 -17.56889292409717 C-53.70492934182039 -17.75129681683158, -53.29287577084838 -17.933700709565993, -52.973956595147804 -18.07487676824742 C-52.582611358937626 -18.218895432728473, -52.191266122727455 -18.362914097209526, -51.80086025146062 -18.506587066708033 C-51.55332448504796 -18.58005438283756, -51.3057887186353 -18.653521698967083, -50.60251438623541 -18.862249829261067 C-50.17127484050334 -18.960677441473386, -49.74003529477126 -19.059105053685705, -49.383843259676766 -19.140403561325773 C-49.031169819029536 -19.197421068186237, -48.678496378382306 -19.254438575046702, -48.14985465284788 -19.3399052695533 C-47.70494178357925 -19.382825478965632, -47.260028914310624 -19.425745688377965, -46.9056192896239 -19.45993515863156 C-46.55470111532228 -19.47118842146062, -46.20378294102067 -19.482441684289686, -45.65625000000001 -19.5 C-45.65625000000001 -19.5, -45.65625 -19.5, -45.65625 -19.5" stroke="none" stroke-width="0" fill="#ECECFF" style=""/><path d="M-45.65625 -19.5 C-12.906769507206754 -19.5, 19.842710985586493 -19.5, 45.65625 -19.5 M-45.65625 -19.5 C-21.284113575558646 -19.5, 3.0880228488827086 -19.5, 45.65625 -19.5 M45.65625 -19.5 C45.65625 -19.5, 45.65625 -19.5, 45.65625 -19.5 M45.65625 -19.5 C45.65625 -19.5, 45.65625 -19.5, 45.65625 -19.5 M45.65625 -19.5 C46.12171406339099 -19.485073473457888, 46.58717812678197 -19.47014694691578, 46.9056192896239 -19.45993515863156 M45.65625 -19.5 C46.03573869891623 -19.4878305360557, 46.41522739783245 -19.4756610721114, 46.9056192896239 -19.45993515863156 M46.9056192896239 -19.45993515863156 C47.181850602801745 -19.43328745606605, 47.45808191597959 -19.406639753500542, 48.149854652847864 -19.3399052695533 M46.9056192896239 -19.45993515863156 C47.27047688593858 -19.42473778512054, 47.63533448225326 -19.389540411609524, 48.149854652847864 -19.3399052695533 M48.149854652847864 -19.3399052695533 C48.570727162461935 -19.271861866113955, 48.991599672076006 -19.20381846267461, 49.38384325967676 -19.140403561325776 M48.149854652847864 -19.3399052695533 C48.63226304381348 -19.261913222034924, 49.1146714347791 -19.183921174516552, 49.38384325967676 -19.140403561325776 M49.38384325967676 -19.140403561325776 C49.656183207355596 -19.078243745452326, 49.92852315503443 -19.016083929578876, 50.60251438623539 -18.862249829261074 M49.38384325967676 -19.140403561325776 C49.63589811710455 -19.08287368492954, 49.88795297453235 -19.025343808533307, 50.60251438623539 -18.862249829261074 M50.60251438623539 -18.862249829261074 C51.052845572787746 -18.728593896928974, 51.50317675934009 -18.59493796459687, 51.800860251460605 -18.50658706670804 M50.60251438623539 -18.862249829261074 C50.96415181414811 -18.754917738930175, 51.32578924206083 -18.64758564859928, 51.800860251460605 -18.50658706670804 M51.800860251460605 -18.50658706670804 C52.153090334203405 -18.376963140279496, 52.50532041694621 -18.247339213850953, 52.9739565951478 -18.074876768247425 M51.800860251460605 -18.50658706670804 C52.05255004985726 -18.41396289430308, 52.304239848253914 -18.321338721898115, 52.9739565951478 -18.074876768247425 M52.9739565951478 -18.074876768247425 C53.32696015866791 -17.91861256215573, 53.67996372218803 -17.762348356064035, 54.11698291279238 -17.568892924097174 M52.9739565951478 -18.074876768247425 C53.429907512727624 -17.87304082233825, 53.88585843030745 -17.671204876429076, 54.11698291279238 -17.568892924097174 M54.11698291279238 -17.568892924097174 C54.442332268780696 -17.39915837347428, 54.76768162476901 -17.229423822851384, 55.22524226407678 -16.990714730406097 M54.11698291279238 -17.568892924097174 C54.367992804809774 -17.437941224211208, 54.619002696827174 -17.306989524325243, 55.22524226407678 -16.990714730406097 M55.22524226407678 -16.990714730406097 C55.45805618904145 -16.84958156092603, 55.69087011400612 -16.708448391445962, 56.2941805736057 -16.342718045390892 M55.22524226407678 -16.990714730406097 C55.51038495732476 -16.81785955407471, 55.795527650572744 -16.64500437774332, 56.2941805736057 -16.342718045390892 M56.2941805736057 -16.342718045390892 C56.645282958815194 -16.09780422044604, 56.99638534402469 -15.85289039550119, 57.31940534457871 -15.627565626425154 M56.2941805736057 -16.342718045390892 C56.680714108630774 -16.07308898412445, 57.06724764365584 -15.803459922858007, 57.31940534457871 -15.627565626425154 M57.31940534457871 -15.627565626425154 C57.57919130943087 -15.420393232650417, 57.838977274283025 -15.213220838875682, 58.296703708501866 -14.848196188198123 M57.31940534457871 -15.627565626425154 C57.51964000341894 -15.46788381446812, 57.71987466225918 -15.308202002511086, 58.296703708501866 -14.848196188198123 M58.296703708501866 -14.848196188198123 C58.61393901711516 -14.560091474501847, 58.93117432572845 -14.271986760805571, 59.22205973676799 -14.007812326905688 M58.296703708501866 -14.848196188198123 C58.54139964929696 -14.62596980906783, 58.78609559009206 -14.403743429937537, 59.22205973676799 -14.007812326905688 M59.22205973676799 -14.007812326905688 C59.48199545556642 -13.739407356126899, 59.74193117436486 -13.47100238534811, 60.09167094296865 -13.10986736009568 M59.22205973676799 -14.007812326905688 C59.44275010815789 -13.779931399429154, 59.663440479547795 -13.552050471952619, 60.09167094296865 -13.10986736009568 M60.09167094296865 -13.10986736009568 C60.312269826252155 -12.850739359358819, 60.53286870953567 -12.591611358621956, 60.90196390812658 -12.158051136245305 M60.09167094296865 -13.10986736009568 C60.365348851287536 -12.78838971627018, 60.63902675960642 -12.466912072444678, 60.90196390812658 -12.158051136245305 M60.90196390812658 -12.158051136245305 C61.10528327550761 -11.885621706730143, 61.30860264288864 -11.613192277214983, 61.649608964640635 -11.156274872382312 M60.90196390812658 -12.158051136245305 C61.16534780814674 -11.805140704985202, 61.4287317081669 -11.4522302737251, 61.649608964640635 -11.156274872382312 M61.649608964640635 -11.156274872382312 C61.92116234327419 -10.73909596050892, 62.19271572190775 -10.321917048635527, 62.33153387860425 -10.108655082055241 M61.649608964640635 -11.156274872382312 C61.921037576614694 -10.739287635602455, 62.192466188588746 -10.322300398822598, 62.33153387860425 -10.108655082055241 M62.33153387860425 -10.108655082055241 C62.46055590164649 -9.8795634152472, 62.58957792468873 -9.650471748439157, 62.944936474273504 -9.019496659696287 M62.33153387860425 -10.108655082055241 C62.47390821386476 -9.85585503283544, 62.616282549125266 -9.603054983615639, 62.944936474273504 -9.019496659696287 M62.944936474273504 -9.019496659696287 C63.06865039221129 -8.762602062044675, 63.19236431014908 -8.505707464393062, 63.48729614880834 -7.893275190886684 M62.944936474273504 -9.019496659696287 C63.06476064980568 -8.770679195377088, 63.18458482533785 -8.52186173105789, 63.48729614880834 -7.893275190886684 M63.48729614880834 -7.893275190886684 C63.60042946318008 -7.613833717104657, 63.713562777551815 -7.33439224332263, 63.956384229970325 -6.734618561215508 M63.48729614880834 -7.893275190886684 C63.64649690652095 -7.500046241399283, 63.805697664233556 -7.106817291911882, 63.956384229970325 -6.734618561215508 M63.956384229970325 -6.734618561215508 C64.061547887723 -6.4178823796178825, 64.16671154547566 -6.101146198020256, 64.35027313421489 -5.548287939305138 M63.956384229970325 -6.734618561215508 C64.09554367068445 -6.315492497830409, 64.23470311139859 -5.8963664344453095, 64.35027313421489 -5.548287939305138 M64.35027313421489 -5.548287939305138 C64.43882711631242 -5.210593226028593, 64.52738109840996 -4.872898512752049, 64.66734428754556 -4.339158212148133 M64.35027313421489 -5.548287939305138 C64.42878699555892 -5.2488805578775874, 64.50730085690294 -4.949473176450037, 64.66734428754556 -4.339158212148133 M64.66734428754556 -4.339158212148133 C64.73662400862636 -3.9834214866724067, 64.80590372970718 -3.62768476119668, 64.90629477658177 -3.1121979531509023 M64.66734428754556 -4.339158212148133 C64.72905777100718 -4.022272517722074, 64.7907712544688 -3.7053868232960143, 64.90629477658177 -3.1121979531509023 M64.90629477658177 -3.1121979531509023 C64.95921060950523 -2.7017932024096734, 65.0121264424287 -2.2913884516684444, 65.06614270250937 -1.872449005199798 M64.90629477658177 -3.1121979531509023 C64.95432947948872 -2.7396502829295826, 65.00236418239567 -2.3671026127082633, 65.06614270250937 -1.872449005199798 M65.06614270250937 -1.872449005199798 C65.0877287758923 -1.5362284882958013, 65.10931484927524 -1.2000079713918046, 65.14623121591342 -0.6250057626472757 M65.06614270250937 -1.872449005199798 C65.08807270694253 -1.5308714845724811, 65.11000271137567 -1.1892939639451643, 65.14623121591342 -0.6250057626472757 M65.14623121591342 -0.6250057626472757 C65.14623121591342 -0.21625317535147476, 65.14623121591342 0.19249941194432618, 65.14623121591342 0.625005762647271 M65.14623121591342 -0.6250057626472757 C65.14623121591342 -0.21202563431238353, 65.14623121591342 0.20095449402250865, 65.14623121591342 0.625005762647271 M65.14623121591342 0.625005762647271 C65.12025194225401 1.0296539199846921, 65.09427266859461 1.4343020773221133, 65.06614270250937 1.8724490051997846 M65.14623121591342 0.625005762647271 C65.12958926715693 0.8842175476688398, 65.11294731840044 1.1434293326904084, 65.06614270250937 1.8724490051997846 M65.06614270250937 1.8724490051997846 C65.02980533799798 2.1542744287258286, 64.9934679734866 2.4360998522518726, 64.90629477658177 3.1121979531508885 M65.06614270250937 1.8724490051997846 C65.03092805380595 2.1455668666244936, 64.99571340510255 2.418684728049203, 64.90629477658177 3.1121979531508885 M64.90629477658177 3.1121979531508885 C64.81579278946997 3.5769065293682933, 64.72529080235816 4.041615105585699, 64.66734428754556 4.339158212148129 M64.90629477658177 3.1121979531508885 C64.8278959720905 3.5147592446203513, 64.74949716759924 3.9173205360898145, 64.66734428754556 4.339158212148129 M64.66734428754556 4.339158212148129 C64.54403850745665 4.8093765926903265, 64.42073272736772 5.279594973232523, 64.35027313421489 5.548287939305125 M64.66734428754556 4.339158212148129 C64.57025258525333 4.709410952798359, 64.4731608829611 5.079663693448591, 64.35027313421489 5.548287939305125 M64.35027313421489 5.548287939305125 C64.24390118654829 5.868663297608678, 64.13752923888167 6.18903865591223, 63.956384229970325 6.734618561215495 M64.35027313421489 5.548287939305125 C64.26996064574071 5.790176358532063, 64.18964815726652 6.032064777759001, 63.956384229970325 6.734618561215495 M63.956384229970325 6.734618561215495 C63.822803278871895 7.064566093040611, 63.689222327773464 7.394513624865727, 63.48729614880834 7.893275190886679 M63.956384229970325 6.734618561215495 C63.79985815916544 7.121240982329277, 63.64333208836055 7.507863403443059, 63.48729614880834 7.893275190886679 M63.48729614880834 7.893275190886679 C63.3112125872112 8.258916474127806, 63.13512902561406 8.624557757368933, 62.944936474273504 9.019496659696284 M63.48729614880834 7.893275190886679 C63.32286080583904 8.234728698915143, 63.158425462869744 8.576182206943606, 62.944936474273504 9.019496659696284 M62.944936474273504 9.019496659696284 C62.786144057235774 9.3014486756226, 62.627351640198036 9.583400691548917, 62.33153387860425 10.108655082055236 M62.944936474273504 9.019496659696284 C62.75567652560455 9.35554686320596, 62.56641657693559 9.691597066715637, 62.33153387860425 10.108655082055236 M62.33153387860425 10.108655082055236 C62.14819833847815 10.390307704174639, 61.96486279835206 10.671960326294043, 61.64960896464064 11.156274872382301 M62.33153387860425 10.108655082055236 C62.16560511998454 10.363566213405518, 61.999676361364834 10.618477344755798, 61.64960896464064 11.156274872382301 M61.64960896464064 11.156274872382301 C61.43673154716552 11.441511218267264, 61.22385412969041 11.726747564152227, 60.90196390812658 12.158051136245302 M61.64960896464064 11.156274872382301 C61.441881016893475 11.434611397958152, 61.23415306914631 11.712947923534001, 60.90196390812658 12.158051136245302 M60.90196390812658 12.158051136245302 C60.67854172355663 12.420495547323616, 60.45511953898668 12.682939958401933, 60.09167094296866 13.10986736009567 M60.90196390812658 12.158051136245302 C60.64590723660284 12.458829872654457, 60.38985056507909 12.759608609063612, 60.09167094296866 13.10986736009567 M60.09167094296866 13.10986736009567 C59.823038028145994 13.387252899822553, 59.55440511332333 13.664638439549435, 59.22205973676799 14.007812326905684 M60.09167094296866 13.10986736009567 C59.80160359479234 13.409385712059903, 59.511536246616025 13.708904064024136, 59.22205973676799 14.007812326905684 M59.22205973676799 14.007812326905684 C58.90733565105045 14.293636414411354, 58.59261156533292 14.579460501917023, 58.29670370850189 14.848196188198111 M59.22205973676799 14.007812326905684 C58.972414649413906 14.234533389993606, 58.72276956205983 14.461254453081526, 58.29670370850189 14.848196188198111 M58.29670370850189 14.848196188198111 C57.955151709251744 15.120574818519682, 57.6135997100016 15.39295344884125, 57.31940534457871 15.627565626425152 M58.29670370850189 14.848196188198111 C57.942481726379036 15.130678792698262, 57.588259744256185 15.413161397198412, 57.31940534457871 15.627565626425152 M57.31940534457871 15.627565626425152 C56.98663285006277 15.859693313110363, 56.653860355546826 16.091820999795573, 56.29418057360571 16.34271804539089 M57.31940534457871 15.627565626425152 C56.979130855500756 15.86492637976071, 56.63885636642281 16.10228713309627, 56.29418057360571 16.34271804539089 M56.29418057360571 16.34271804539089 C55.980818847424565 16.532679765319806, 55.66745712124342 16.72264148524872, 55.22524226407678 16.990714730406093 M56.29418057360571 16.34271804539089 C55.88922076379956 16.588207061903372, 55.48426095399341 16.833696078415855, 55.22524226407678 16.990714730406093 M55.22524226407678 16.990714730406093 C54.820984835454425 17.201615571979136, 54.41672740683207 17.412516413552183, 54.11698291279239 17.56889292409717 M55.22524226407678 16.990714730406093 C54.857704474843686 17.182458959629813, 54.49016668561058 17.37420318885353, 54.11698291279239 17.56889292409717 M54.11698291279239 17.56889292409717 C53.68830795591685 17.758654611315183, 53.2596329990413 17.948416298533196, 52.973956595147804 18.07487676824742 M54.11698291279239 17.56889292409717 C53.845272404810885 17.689171105974737, 53.57356189682938 17.8094492878523, 52.973956595147804 18.07487676824742 M52.973956595147804 18.07487676824742 C52.68695390230277 18.180496412238202, 52.39995120945774 18.286116056228984, 51.80086025146062 18.506587066708033 M52.973956595147804 18.07487676824742 C52.53826323821461 18.235215951104077, 52.10256988128142 18.395555133960734, 51.80086025146062 18.506587066708033 M51.80086025146062 18.506587066708033 C51.53050165521027 18.586828078933905, 51.26014305895993 18.667069091159775, 50.60251438623541 18.86224982926107 M51.80086025146062 18.506587066708033 C51.34276881784249 18.642546199634893, 50.884677384224354 18.778505332561753, 50.60251438623541 18.86224982926107 M50.60251438623541 18.86224982926107 C50.244685214710884 18.943922002607977, 49.886856043186356 19.025594175954883, 49.383843259676766 19.140403561325773 M50.60251438623541 18.86224982926107 C50.18176706085104 18.958282660647164, 49.761019735466654 19.054315492033258, 49.383843259676766 19.140403561325773 M49.383843259676766 19.140403561325773 C48.98377964332947 19.20508274427712, 48.58371602698218 19.269761927228473, 48.14985465284788 19.3399052695533 M49.383843259676766 19.140403561325773 C49.069037441865504 19.19129892459392, 48.75423162405424 19.242194287862066, 48.14985465284788 19.3399052695533 M48.14985465284788 19.3399052695533 C47.666303758180106 19.386552842806864, 47.18275286351234 19.433200416060426, 46.9056192896239 19.45993515863156 M48.14985465284788 19.3399052695533 C47.80633163675882 19.373044521768538, 47.46280862066976 19.406183773983777, 46.9056192896239 19.45993515863156 M46.9056192896239 19.45993515863156 C46.40611181811459 19.475953391010552, 45.906604346605285 19.491971623389542, 45.65625000000001 19.5 M46.9056192896239 19.45993515863156 C46.443635453296515 19.474750081065594, 45.98165161696913 19.489565003499624, 45.65625000000001 19.5 M45.65625000000001 19.5 C45.65625000000001 19.5, 45.65625000000001 19.5, 45.65625 19.5 M45.65625000000001 19.5 C45.65625000000001 19.5, 45.65625 19.5, 45.65625 19.5 M45.65625 19.5 C16.15403425304722 19.5, -13.348181493905557 19.5, -45.65624999999999 19.5 M45.65625 19.5 C26.49631660627188 19.5, 7.336383212543758 19.5, -45.65624999999999 19.5 M-45.65624999999999 19.5 C-46.15395940838018 19.484039428005843, -46.65166881676036 19.468078856011683, -46.90561928962389 19.45993515863156 M-45.65624999999999 19.5 C-45.93345694142782 19.491110512938988, -46.210663882855656 19.482221025877976, -46.90561928962389 19.45993515863156 M-46.90561928962389 19.45993515863156 C-47.23069497786476 19.428575497947676, -47.55577066610563 19.397215837263794, -48.14985465284787 19.3399052695533 M-46.90561928962389 19.45993515863156 C-47.16744306654157 19.434677333761474, -47.429266843459246 19.409419508891386, -48.14985465284787 19.3399052695533 M-48.14985465284787 19.3399052695533 C-48.40988356194863 19.297865812084193, -48.66991247104939 19.255826354615092, -49.38384325967676 19.140403561325773 M-48.14985465284787 19.3399052695533 C-48.46273392171948 19.289321375777103, -48.7756131905911 19.23873748200091, -49.38384325967676 19.140403561325773 M-49.38384325967676 19.140403561325773 C-49.8499823978915 19.03401034487041, -50.316121536106245 18.927617128415047, -50.602514386235384 18.862249829261074 M-49.38384325967676 19.140403561325773 C-49.73833293020876 19.05949360728813, -50.092822600740774 18.97858365325048, -50.602514386235384 18.862249829261074 M-50.602514386235384 18.862249829261074 C-50.898557384184244 18.77438582143126, -51.1946003821331 18.686521813601445, -51.80086025146059 18.506587066708043 M-50.602514386235384 18.862249829261074 C-51.06566867068258 18.7247880687836, -51.52882295512977 18.587326308306125, -51.80086025146059 18.506587066708043 M-51.80086025146059 18.506587066708043 C-52.20656834761601 18.357282736998318, -52.612276443771435 18.207978407288596, -52.9739565951478 18.074876768247425 M-51.80086025146059 18.506587066708043 C-52.05244998660416 18.413999718505192, -52.304039721747735 18.32141237030234, -52.9739565951478 18.074876768247425 M-52.9739565951478 18.074876768247425 C-53.20577175071771 17.97225907542889, -53.43758690628761 17.869641382610357, -54.11698291279238 17.568892924097174 M-52.9739565951478 18.074876768247425 C-53.30193283445579 17.92969141617524, -53.629909073763784 17.784506064103056, -54.11698291279238 17.568892924097174 M-54.11698291279238 17.568892924097174 C-54.530654793689095 17.353080568802845, -54.94432667458581 17.137268213508516, -55.22524226407678 16.990714730406097 M-54.11698291279238 17.568892924097174 C-54.51975862515536 17.358765092947564, -54.922534337518336 17.14863726179796, -55.22524226407678 16.990714730406097 M-55.22524226407678 16.990714730406097 C-55.61285191432067 16.755743482581106, -56.00046156456456 16.52077223475612, -56.294180573605686 16.3427180453909 M-55.22524226407678 16.990714730406097 C-55.45601294307771 16.850820188636696, -55.686783622078636 16.71092564686729, -56.294180573605686 16.3427180453909 M-56.294180573605686 16.3427180453909 C-56.582239754975454 16.141780430348334, -56.87029893634522 15.940842815305766, -57.31940534457871 15.627565626425156 M-56.294180573605686 16.3427180453909 C-56.606069083509546 16.125158122317956, -56.91795759341341 15.90759819924501, -57.31940534457871 15.627565626425156 M-57.31940534457871 15.627565626425156 C-57.6713242139465 15.346919693058764, -58.02324308331428 15.066273759692372, -58.296703708501866 14.848196188198125 M-57.31940534457871 15.627565626425156 C-57.66201045511709 15.354347167875684, -58.00461556565547 15.08112870932621, -58.296703708501866 14.848196188198125 M-58.296703708501866 14.848196188198125 C-58.49990902882966 14.663650492794575, -58.70311434915745 14.479104797391026, -59.222059736767974 14.007812326905697 M-58.296703708501866 14.848196188198125 C-58.60729129366854 14.56612876104694, -58.91787887883522 14.284061333895753, -59.222059736767974 14.007812326905697 M-59.222059736767974 14.007812326905697 C-59.50276187714822 13.717964320888772, -59.783464017528466 13.428116314871847, -60.091670942968655 13.109867360095677 M-59.222059736767974 14.007812326905697 C-59.540756881688445 13.678731359253101, -59.859454026608915 13.349650391600505, -60.091670942968655 13.109867360095677 M-60.091670942968655 13.109867360095677 C-60.27243280198674 12.897534194851879, -60.45319466100482 12.68520102960808, -60.901963908126575 12.158051136245307 M-60.091670942968655 13.109867360095677 C-60.4004831138073 12.747119012318295, -60.70929528464594 12.384370664540915, -60.901963908126575 12.158051136245307 M-60.901963908126575 12.158051136245307 C-61.13631518952264 11.844041769015528, -61.3706664709187 11.530032401785748, -61.649608964640635 11.156274872382316 M-60.901963908126575 12.158051136245307 C-61.13275186159504 11.848816303812658, -61.363539815063504 11.539581471380007, -61.649608964640635 11.156274872382316 M-61.649608964640635 11.156274872382316 C-61.853825670821706 10.842543171824277, -62.05804237700278 10.52881147126624, -62.33153387860425 10.108655082055249 M-61.649608964640635 11.156274872382316 C-61.78807301181477 10.943556913120103, -61.92653705898889 10.73083895385789, -62.33153387860425 10.108655082055249 M-62.33153387860425 10.108655082055249 C-62.54117935916459 9.73640830241347, -62.750824839724935 9.36416152277169, -62.944936474273504 9.019496659696289 M-62.33153387860425 10.108655082055249 C-62.54571784685981 9.728349757938899, -62.75990181511537 9.34804443382255, -62.944936474273504 9.019496659696289 M-62.944936474273504 9.019496659696289 C-63.11806100901408 8.659999859035851, -63.29118554375466 8.300503058375416, -63.48729614880834 7.893275190886686 M-62.944936474273504 9.019496659696289 C-63.11525190584879 8.665833021863758, -63.28556733742407 8.312169384031227, -63.48729614880834 7.893275190886686 M-63.48729614880834 7.893275190886686 C-63.59221674883807 7.634119280311455, -63.6971373488678 7.374963369736224, -63.956384229970325 6.73461856121551 M-63.48729614880834 7.893275190886686 C-63.65460813858391 7.48001134138376, -63.82192012835949 7.066747491880832, -63.956384229970325 6.73461856121551 M-63.956384229970325 6.73461856121551 C-64.0710081870033 6.3893894654796135, -64.18563214403626 6.044160369743718, -64.35027313421489 5.5482879393051325 M-63.956384229970325 6.73461856121551 C-64.1006852723123 6.300006812930277, -64.2449863146543 5.865395064645043, -64.35027313421489 5.5482879393051325 M-64.35027313421489 5.5482879393051325 C-64.43454388896666 5.226927028260469, -64.51881464371844 4.905566117215805, -64.66734428754556 4.339158212148136 M-64.35027313421489 5.5482879393051325 C-64.46785785642508 5.099886431976658, -64.5854425786353 4.651484924648183, -64.66734428754556 4.339158212148136 M-64.66734428754556 4.339158212148136 C-64.7338392379377 3.9977206955972564, -64.80033418832983 3.656283179046377, -64.90629477658177 3.112197953150904 M-64.66734428754556 4.339158212148136 C-64.72238391947042 4.056541334844331, -64.77742355139527 3.7739244575405264, -64.90629477658177 3.112197953150904 M-64.90629477658177 3.112197953150904 C-64.96881700724781 2.627287878516104, -65.03133923791384 2.142377803881303, -65.06614270250937 1.872449005199809 M-64.90629477658177 3.112197953150904 C-64.96926797178428 2.623790286624271, -65.03224116698678 2.1353826200976385, -65.06614270250937 1.872449005199809 M-65.06614270250937 1.872449005199809 C-65.08769549133302 1.5367469221734236, -65.10924828015668 1.201044839147038, -65.14623121591342 0.6250057626472781 M-65.06614270250937 1.872449005199809 C-65.08759015192398 1.5383876684977156, -65.10903760133858 1.204326331795622, -65.14623121591342 0.6250057626472781 M-65.14623121591342 0.6250057626472781 C-65.14623121591342 0.32023283107036465, -65.14623121591342 0.015459899493451168, -65.14623121591342 -0.6250057626472687 M-65.14623121591342 0.6250057626472781 C-65.14623121591342 0.17052016069183584, -65.14623121591342 -0.28396544126360646, -65.14623121591342 -0.6250057626472687 M-65.14623121591342 -0.6250057626472687 C-65.12215773324476 -0.9999696869769418, -65.09808425057612 -1.3749336113066148, -65.06614270250937 -1.8724490051997822 M-65.14623121591342 -0.6250057626472687 C-65.12867415415299 -0.8984711713712136, -65.11111709239255 -1.1719365800951584, -65.06614270250937 -1.8724490051997822 M-65.06614270250937 -1.8724490051997822 C-65.00517742475043 -2.345283660542323, -64.94421214699149 -2.8181183158848633, -64.90629477658177 -3.112197953150895 M-65.06614270250937 -1.8724490051997822 C-65.01448597989497 -2.2730883450234103, -64.96282925728056 -2.6737276848470386, -64.90629477658177 -3.112197953150895 M-64.90629477658177 -3.112197953150895 C-64.85222887124604 -3.389814950216717, -64.79816296591032 -3.6674319472825396, -64.66734428754556 -4.339158212148126 M-64.90629477658177 -3.112197953150895 C-64.85176792302086 -3.3921818219316076, -64.79724106945994 -3.67216569071232, -64.66734428754556 -4.339158212148126 M-64.66734428754556 -4.339158212148126 C-64.60137708280455 -4.59071975419303, -64.53540987806352 -4.842281296237934, -64.35027313421489 -5.548287939305123 M-64.66734428754556 -4.339158212148126 C-64.59070166130165 -4.63142976314051, -64.51405903505773 -4.923701314132893, -64.35027313421489 -5.548287939305123 M-64.35027313421489 -5.548287939305123 C-64.19717364383288 -6.009399211244581, -64.04407415345088 -6.47051048318404, -63.95638422997033 -6.734618561215485 M-64.35027313421489 -5.548287939305123 C-64.22956238903093 -5.91184947115381, -64.10885164384696 -6.275411003002497, -63.95638422997033 -6.734618561215485 M-63.95638422997033 -6.734618561215485 C-63.81105802611369 -7.093577094432398, -63.66573182225705 -7.45253562764931, -63.48729614880834 -7.893275190886676 M-63.95638422997033 -6.734618561215485 C-63.7808043783077 -7.168304189427681, -63.60522452664507 -7.601989817639877, -63.48729614880834 -7.893275190886676 M-63.48729614880834 -7.893275190886676 C-63.29693877503058 -8.288556350531506, -63.10658140125283 -8.683837510176334, -62.944936474273504 -9.019496659696282 M-63.48729614880834 -7.893275190886676 C-63.2763874485061 -8.331231619787541, -63.065478748203866 -8.769188048688408, -62.944936474273504 -9.019496659696282 M-62.944936474273504 -9.019496659696282 C-62.74360485278171 -9.376981340692343, -62.542273231289904 -9.734466021688402, -62.33153387860425 -10.108655082055243 M-62.944936474273504 -9.019496659696282 C-62.80900613145218 -9.260854747815314, -62.67307578863086 -9.502212835934346, -62.33153387860425 -10.108655082055243 M-62.33153387860425 -10.108655082055243 C-62.09092613720516 -10.47829318506938, -61.85031839580606 -10.847931288083515, -61.64960896464064 -11.156274872382308 M-62.33153387860425 -10.108655082055243 C-62.15790264912276 -10.375399277052255, -61.98427141964127 -10.642143472049264, -61.64960896464064 -11.156274872382308 M-61.64960896464064 -11.156274872382308 C-61.44799916265273 -11.426413640015305, -61.24638936066482 -11.696552407648301, -60.90196390812659 -12.158051136245302 M-61.64960896464064 -11.156274872382308 C-61.49172255052955 -11.367828283542941, -61.33383613641846 -11.579381694703573, -60.90196390812659 -12.158051136245302 M-60.90196390812659 -12.158051136245302 C-60.68629736935763 -12.411385324457019, -60.470630830588675 -12.664719512668738, -60.09167094296866 -13.10986736009567 M-60.90196390812659 -12.158051136245302 C-60.59109612362309 -12.523214124801157, -60.28022833911958 -12.888377113357015, -60.09167094296866 -13.10986736009567 M-60.09167094296866 -13.10986736009567 C-59.90920401867299 -13.298279440244041, -59.72673709437732 -13.486691520392412, -59.222059736767996 -14.007812326905677 M-60.09167094296866 -13.10986736009567 C-59.90510778667228 -13.302509136091672, -59.7185446303759 -13.495150912087674, -59.222059736767996 -14.007812326905677 M-59.222059736767996 -14.007812326905677 C-58.867832271955265 -14.329512338103468, -58.513604807142535 -14.65121234930126, -58.29670370850189 -14.848196188198107 M-59.222059736767996 -14.007812326905677 C-58.90909811586201 -14.292035790501764, -58.59613649495602 -14.576259254097849, -58.29670370850189 -14.848196188198107 M-58.29670370850189 -14.848196188198107 C-58.01065816700167 -15.076309895552987, -57.72461262550146 -15.304423602907864, -57.31940534457872 -15.627565626425149 M-58.29670370850189 -14.848196188198107 C-57.990196777716164 -15.092627309007746, -57.683689846930434 -15.337058429817384, -57.31940534457872 -15.627565626425149 M-57.31940534457872 -15.627565626425149 C-57.07214556713415 -15.800043343467228, -56.82488578968958 -15.97252106050931, -56.294180573605715 -16.342718045390885 M-57.31940534457872 -15.627565626425149 C-57.09978083130861 -15.780766179490435, -56.88015631803849 -15.93396673255572, -56.294180573605715 -16.342718045390885 M-56.294180573605715 -16.342718045390885 C-56.03638076876457 -16.4989978020854, -55.77858096392344 -16.65527755877991, -55.22524226407679 -16.99071473040609 M-56.294180573605715 -16.342718045390885 C-56.01662942547278 -16.510971182460665, -55.739078277339836 -16.679224319530444, -55.22524226407679 -16.99071473040609 M-55.22524226407679 -16.99071473040609 C-54.99762957133656 -17.109460126415783, -54.77001687859632 -17.228205522425476, -54.11698291279239 -17.56889292409717 M-55.22524226407679 -16.99071473040609 C-55.0017803983923 -17.10729464259953, -54.778318532707814 -17.223874554792975, -54.11698291279239 -17.56889292409717 M-54.11698291279239 -17.56889292409717 C-53.735589483469894 -17.73772448162413, -53.3541960541474 -17.90655603915109, -52.973956595147804 -18.07487676824742 M-54.11698291279239 -17.56889292409717 C-53.75593181735942 -17.728719533845133, -53.39488072192645 -17.888546143593096, -52.973956595147804 -18.07487676824742 M-52.973956595147804 -18.07487676824742 C-52.71967815119525 -18.168453586146132, -52.46539970724269 -18.262030404044843, -51.80086025146062 -18.506587066708033 M-52.973956595147804 -18.07487676824742 C-52.50962681398967 -18.24575441993106, -52.04529703283153 -18.4166320716147, -51.80086025146062 -18.506587066708033 M-51.80086025146062 -18.506587066708033 C-51.32294431995625 -18.648430006546615, -50.84502838845188 -18.790272946385194, -50.60251438623541 -18.862249829261067 M-51.80086025146062 -18.506587066708033 C-51.48923538793821 -18.599075690449197, -51.1776105244158 -18.69156431419036, -50.60251438623541 -18.862249829261067 M-50.60251438623541 -18.862249829261067 C-50.18694331176028 -18.95710121515532, -49.77137223728515 -19.05195260104957, -49.383843259676766 -19.140403561325773 M-50.60251438623541 -18.862249829261067 C-50.255272474569175 -18.94150552963365, -49.90803056290294 -19.02076123000623, -49.383843259676766 -19.140403561325773 M-49.383843259676766 -19.140403561325773 C-48.92666009394907 -19.214317390052226, -48.46947692822137 -19.288231218778677, -48.14985465284788 -19.3399052695533 M-49.383843259676766 -19.140403561325773 C-49.02366789460294 -19.198633921149238, -48.66349252952911 -19.256864280972703, -48.14985465284788 -19.3399052695533 M-48.14985465284788 -19.3399052695533 C-47.725347244487274 -19.380856988692994, -47.30083983612667 -19.421808707832685, -46.9056192896239 -19.45993515863156 M-48.14985465284788 -19.3399052695533 C-47.727336852001685 -19.38066505364893, -47.304819051155484 -19.421424837744564, -46.9056192896239 -19.45993515863156 M-46.9056192896239 -19.45993515863156 C-46.44190423371438 -19.474805597907977, -45.978189177804865 -19.489676037184392, -45.65625000000001 -19.5 M-46.9056192896239 -19.45993515863156 C-46.573031314637376 -19.470600607646155, -46.24044333965086 -19.48126605666075, -45.65625000000001 -19.5 M-45.65625000000001 -19.5 C-45.65625000000001 -19.5, -45.65625 -19.5, -45.65625 -19.5 M-45.65625000000001 -19.5 C-45.65625000000001 -19.5, -45.65625000000001 -19.5, -45.65625 -19.5" stroke="#9370DB" stroke-width="1.3" fill="none" stroke-dasharray="0 0" style=""/></g><g class="label" style="" transform="translate(-52.78125, -12)"><rect/><foreignObject width="105.5625" height="24"><div xmlns="http://www.w3.org/1999/xhtml" style="display: table-cell; white-space: nowrap; line-height: 1.5; max-width: 200px; text-align: center;"><span class="nodeLabel"><p>User (Browser)</p></span></div></foreignObject></g></g><g class="node default" id="my-svg-flowchart-GH-1" data-look="classic" transform="translate(2424.859375, 108)"><rect class="basic label-container" style="" x="-130" y="-63" width="260" height="126"/><g class="label" style="" transform="translate(-100, -48)"><rect/><foreignObject width="200" height="96"><div xmlns="http://www.w3.org/1999/xhtml" style="display: table; white-space: break-spaces; line-height: 1.5; max-width: 200px; text-align: center; width: 200px;"><span class="nodeLabel"><p>GitHub<br />celticsupporters-limited/csl-website<br />main branch</p></span></div></foreignObject></g></g><g class="node default" id="my-svg-flowchart-PUB-2" data-look="classic" transform="translate(1624.3057899475098, 430)"><rect class="basic label-container" style="" x="-130" y="-99" width="260" height="198"/><g class="label" style="" transform="translate(-100, -84)"><rect/><foreignObject width="200" height="168"><div xmlns="http://www.w3.org/1999/xhtml" style="display: table; white-space: break-spaces; line-height: 1.5; max-width: 200px; text-align: center; width: 200px;"><span class="nodeLabel"><p>Public Pages<br />/ · /membership · /share-tracing · /proxy<br />/our-team · /faq · /celtic-paradox<br />/privacy · /terms · /articles-of-association</p></span></div></foreignObject></g></g><g class="node default" id="my-svg-flowchart-AUTHPG-3" data-look="classic" transform="translate(5115.97265625, 430)"><rect class="basic label-container" style="" x="-130" y="-63" width="260" height="126"/><g class="label" style="" transform="translate(-100, -48)"><rect/><foreignObject width="200" height="96"><div xmlns="http://www.w3.org/1999/xhtml" style="display: table; white-space: break-spaces; line-height: 1.5; max-width: 200px; text-align: center; width: 200px;"><span class="nodeLabel"><p>Auth Pages<br />/login · /signup<br />/auth/callback · /auth/update-password</p></span></div></foreignObject></g></g><g class="node default" id="my-svg-flowchart-PORTAL-4" data-look="classic" transform="translate(1267.55859375, 430)"><rect class="basic label-container" style="" x="-130" y="-87" width="260" height="174"/><g class="label" style="" transform="translate(-100, -72)"><rect/><foreignObject width="200" height="144"><div xmlns="http://www.w3.org/1999/xhtml" style="display: table; white-space: break-spaces; line-height: 1.5; max-width: 200px; text-align: center; width: 200px;"><span class="nodeLabel"><p>Member Portal — /member-portal<br />Dashboard · Subscription · Payments<br />Members Library · Enquiries · Edit Profile</p></span></div></foreignObject></g></g><g class="node default" id="my-svg-flowchart-MW-5" data-look="classic" transform="translate(4805.97265625, 430)"><rect class="basic label-container" style="" x="-130" y="-63" width="260" height="126"/><g class="label" style="" transform="translate(-100, -48)"><rect/><foreignObject width="200" height="96"><div xmlns="http://www.w3.org/1999/xhtml" style="display: table; white-space: break-spaces; line-height: 1.5; max-width: 200px; text-align: center; width: 200px;"><span class="nodeLabel"><p>middleware.ts<br />Session protection + cookie refresh<br />(guards /member-portal)</p></span></div></foreignObject></g></g><g class="node default" id="my-svg-flowchart-ACHK-6" data-look="classic" transform="translate(2314.3175086975098, 430)"><rect class="basic label-container" style="" x="-130" y="-75" width="260" height="150"/><g class="label" style="" transform="translate(-100, -60)"><rect/><foreignObject width="200" height="120"><div xmlns="http://www.w3.org/1999/xhtml" style="display: table; white-space: break-spaces; line-height: 1.5; max-width: 200px; text-align: center; width: 200px;"><span class="nodeLabel"><p>POST /api/checkout<br />Create Stripe Checkout session<br />(5 plans, dynamic price_data)</p></span></div></foreignObject></g></g><g class="node default" id="my-svg-flowchart-AWBHK-7" data-look="classic" transform="translate(2633.0440711975098, 430)"><rect class="basic label-container" style="" x="-138.7265625" y="-63" width="277.453125" height="126"/><g class="label" style="" transform="translate(-108.7265625, -48)"><rect/><foreignObject width="217.453125" height="96"><div xmlns="http://www.w3.org/1999/xhtml" style="display: table; white-space: break-spaces; line-height: 1.5; max-width: 200px; text-align: center; width: 200px;"><span class="nodeLabel"><p>POST /api/webhooks/stripe<br />checkout.session.completed<br />customer.subscription.deleted<br />invoice.payment_failed</p></span></div></foreignObject></g></g><g class="node default" id="my-svg-flowchart-ABILL-8" data-look="classic" transform="translate(1953.9776649475098, 430)"><rect class="basic label-container" style="" x="-129.671875" y="-39" width="259.34375" height="78"/><g class="label" style="" transform="translate(-99.671875, -24)"><rect/><foreignObject width="199.34375" height="48"><div xmlns="http://www.w3.org/1999/xhtml" style="display: table-cell; white-space: nowrap; line-height: 1.5; max-width: 200px; text-align: center;"><span class="nodeLabel"><p>POST /api/billing-portal<br />Create Billing Portal session</p></span></div></foreignObject></g></g><g class="node default" id="my-svg-flowchart-APROF-9" data-look="classic" transform="translate(3002.7901649475098, 430)"><rect class="basic label-container" style="" x="-130" y="-51" width="260" height="102"/><g class="label" style="" transform="translate(-100, -36)"><rect/><foreignObject width="200" height="72"><div xmlns="http://www.w3.org/1999/xhtml" style="display: table; white-space: break-spaces; line-height: 1.5; max-width: 200px; text-align: center; width: 200px;"><span class="nodeLabel"><p>PATCH /api/profile<br />Update member profile fields</p></span></div></foreignObject></g></g><g class="node default" id="my-svg-flowchart-AST-10" data-look="classic" transform="translate(3673.1651649475098, 430)"><rect class="basic label-container" style="" x="-117.96875" y="-39" width="235.9375" height="78"/><g class="label" style="" transform="translate(-87.96875, -24)"><rect/><foreignObject width="175.9375" height="48"><div xmlns="http://www.w3.org/1999/xhtml" style="display: table-cell; white-space: nowrap; line-height: 1.5; max-width: 200px; text-align: center;"><span class="nodeLabel"><p>POST /api/share-tracing<br />Validate + insert enquiry</p></span></div></foreignObject></g></g><g class="node default" id="my-svg-flowchart-APX-11" data-look="classic" transform="translate(3387.2276649475098, 430)"><rect class="basic label-container" style="" x="-117.96875" y="-39" width="235.9375" height="78"/><g class="label" style="" transform="translate(-87.96875, -24)"><rect/><foreignObject width="175.9375" height="48"><div xmlns="http://www.w3.org/1999/xhtml" style="display: table-cell; white-space: nowrap; line-height: 1.5; max-width: 200px; text-align: center;"><span class="nodeLabel"><p>POST /api/proxy<br />Validate + insert enquiry</p></span></div></foreignObject></g></g><g class="node default" id="my-svg-flowchart-ARST-12" data-look="classic" transform="translate(4475.97265625, 430)"><rect class="basic label-container" style="" x="-130" y="-63" width="260" height="126"/><g class="label" style="" transform="translate(-100, -48)"><rect/><foreignObject width="200" height="96"><div xmlns="http://www.w3.org/1999/xhtml" style="display: table; white-space: break-spaces; line-height: 1.5; max-width: 200px; text-align: center; width: 200px;"><span class="nodeLabel"><p>POST /api/auth/reset-password<br />Trigger Supabase reset email</p></span></div></foreignObject></g></g><g class="node default" id="my-svg-flowchart-SAUTH-13" data-look="classic" transform="translate(4920.89953994751, 838)"><rect class="basic label-container" style="" x="-130" y="-63" width="260" height="126"/><g class="label" style="" transform="translate(-100, -48)"><rect/><foreignObject width="200" height="96"><div xmlns="http://www.w3.org/1999/xhtml" style="display: table; white-space: break-spaces; line-height: 1.5; max-width: 200px; text-align: center; width: 200px;"><span class="nodeLabel"><p>Auth Service<br />Email+Password · Magic Link<br />PKCE · JWT session cookies</p></span></div></foreignObject></g></g><g class="node default" id="my-svg-flowchart-TM-14" data-look="classic" transform="translate(2764.8487586975098, 838)"><rect class="basic label-container" style="" x="-130" y="-75" width="260" height="150"/><g class="label" style="" transform="translate(-100, -60)"><rect/><foreignObject width="200" height="120"><div xmlns="http://www.w3.org/1999/xhtml" style="display: table; white-space: break-spaces; line-height: 1.5; max-width: 200px; text-align: center; width: 200px;"><span class="nodeLabel"><p>members<br />email · stripe_customer_id<br />membership_tier · plan_name<br />status · profile fields</p></span></div></foreignObject></g></g><g class="node default" id="my-svg-flowchart-TSC-15" data-look="classic" transform="translate(3673.1651649475098, 838)"><rect class="basic label-container" style="" x="-130" y="-87" width="260" height="174"/><g class="label" style="" transform="translate(-100, -72)"><rect/><foreignObject width="200" height="144"><div xmlns="http://www.w3.org/1999/xhtml" style="display: table; white-space: break-spaces; line-height: 1.5; max-width: 200px; text-align: center; width: 200px;"><span class="nodeLabel"><p>shareholder_cases<br />contact_name · email<br />case_type: Share Tracing / Proxy<br />status: New / In Progress / Resolved</p></span></div></foreignObject></g></g><g class="node default" id="my-svg-flowchart-TEV-16" data-look="classic" transform="translate(4250.89953994751, 838)"><rect class="basic label-container" style="" x="-130" y="-63" width="260" height="126"/><g class="label" style="" transform="translate(-100, -48)"><rect/><foreignObject width="200" height="96"><div xmlns="http://www.w3.org/1999/xhtml" style="display: table; white-space: break-spaces; line-height: 1.5; max-width: 200px; text-align: center; width: 200px;"><span class="nodeLabel"><p>events<br />title · event_date<br />recording_url · minutes_url · slides_url</p></span></div></foreignObject></g></g><g class="node default" id="my-svg-flowchart-TDC-17" data-look="classic" transform="translate(3962.0323524475098, 838)"><rect class="basic label-container" style="" x="-108.8671875" y="-51" width="217.734375" height="102"/><g class="label" style="" transform="translate(-78.8671875, -36)"><rect/><foreignObject width="157.734375" height="72"><div xmlns="http://www.w3.org/1999/xhtml" style="display: table-cell; white-space: nowrap; line-height: 1.5; max-width: 200px; text-align: center;"><span class="nodeLabel"><p>documents<br />title · document_type<br />file_url · is_published</p></span></div></foreignObject></g></g><g class="node default" id="my-svg-flowchart-STRCHK-18" data-look="classic" transform="translate(173, 838)"><rect class="basic label-container" style="" x="-130" y="-75" width="260" height="150"/><g class="label" style="" transform="translate(-100, -60)"><rect/><foreignObject width="200" height="120"><div xmlns="http://www.w3.org/1999/xhtml" style="display: table; white-space: break-spaces; line-height: 1.5; max-width: 200px; text-align: center; width: 200px;"><span class="nodeLabel"><p>Checkout<br />5 plans via dynamic price_data<br />Monthly £10/£25/custom · Annual · Lifetime £5k</p></span></div></foreignObject></g></g><g class="node default" id="my-svg-flowchart-STRWBHK-19" data-look="classic" transform="translate(483, 108)"><rect class="basic label-container" style="" x="-130.46875" y="-75" width="260.9375" height="150"/><g class="label" style="" transform="translate(-100.46875, -60)"><rect/><foreignObject width="200.9375" height="120"><div xmlns="http://www.w3.org/1999/xhtml" style="display: table; white-space: break-spaces; line-height: 1.5; max-width: 200px; text-align: center; width: 200px;"><span class="nodeLabel"><p>Webhook Events<br />fired to /api/webhooks/stripe<br />(STRIPE_WEBHOOK_SECRET verified)</p></span></div></foreignObject></g></g><g class="node default" id="my-svg-flowchart-STRBILL-20" data-look="classic" transform="translate(483, 838)"><rect class="basic label-container" style="" x="-130" y="-51" width="260" height="102"/><g class="label" style="" transform="translate(-100, -36)"><rect/><foreignObject width="200" height="72"><div xmlns="http://www.w3.org/1999/xhtml" style="display: table; white-space: break-spaces; line-height: 1.5; max-width: 200px; text-align: center; width: 200px;"><span class="nodeLabel"><p>Billing Portal<br />Card + subscription management</p></span></div></foreignObject></g></g><g class="node default" id="my-svg-flowchart-STRDATA-21" data-look="classic" transform="translate(793, 838)"><rect class="basic label-container" style="" x="-130" y="-63" width="260" height="126"/><g class="label" style="" transform="translate(-100, -48)"><rect/><foreignObject width="200" height="96"><div xmlns="http://www.w3.org/1999/xhtml" style="display: table; white-space: break-spaces; line-height: 1.5; max-width: 200px; text-align: center; width: 200px;"><span class="nodeLabel"><p>charges.list<br />subscriptions.retrieve<br />(live payment data for portal)</p></span></div></foreignObject></g></g><g class="node default" id="my-svg-flowchart-RESEND-22" data-look="classic" transform="translate(1787.03515625, 1173)"><rect class="basic label-container" style="" x="-131.4921875" y="-75" width="262.984375" height="150"/><g class="label" style="" transform="translate(-101.4921875, -60)"><rect/><foreignObject width="202.984375" height="120"><div xmlns="http://www.w3.org/1999/xhtml" style="display: table; white-space: break-spaces; line-height: 1.5; max-width: 200px; text-align: center; width: 200px;"><span class="nodeLabel"><p>Resend<br />Welcome email on checkout.session.completed<br />Form notifications to role mailboxes</p></span></div></foreignObject></g></g><g class="node default" id="my-svg-flowchart-ZOHO-23" data-look="classic" transform="translate(2105.24609375, 1173)"><rect class="basic label-container" style="" x="-129.546875" y="-63" width="259.09375" height="126"/><g class="label" style="" transform="translate(-99.546875, -48)"><rect/><foreignObject width="199.09375" height="96"><div xmlns="http://www.w3.org/1999/xhtml" style="display: table-cell; white-space: nowrap; line-height: 1.5; max-width: 200px; text-align: center;"><span class="nodeLabel"><p>Zoho CRM EU<br />findOrCreateZohoContact<br />createZohoCase<br />(zohoapis.eu — never .com)</p></span></div></foreignObject></g></g><g class="node default" id="my-svg-flowchart-GDRIVE-24" data-look="classic" transform="translate(4250.89953994751, 1173)"><rect class="basic label-container" style="" x="-130" y="-63" width="260" height="126"/><g class="label" style="" transform="translate(-100, -48)"><rect/><foreignObject width="200" height="96"><div xmlns="http://www.w3.org/1999/xhtml" style="display: table; white-space: break-spaces; line-height: 1.5; max-width: 200px; text-align: center; width: 200px;"><span class="nodeLabel"><p>Google Drive<br />Document + recording file storage<br />(STUB_ prefix URLs in DB)</p></span></div></foreignObject></g></g></g></g></g><defs><filter id="my-svg-drop-shadow" height="130%" width="130%"><feDropShadow dx="4" dy="4" stdDeviation="0" flood-opacity="0.06" flood-color="#000000"/></filter></defs><defs><filter id="my-svg-drop-shadow-small" height="150%" width="150%"><feDropShadow dx="2" dy="2" stdDeviation="0" flood-opacity="0.06" flood-color="#000000"/></filter></defs></svg>